<?xml version="1.0" encoding="iso-8859-1"?>
<!-- Generator: Adobe Illustrator 18.1.1, SVG Export Plug-In . SVG Version: 6.00 Build 0)  -->
<svg version="1.1" id="Layer_1" xmlns="http://www.w3.org/2000/svg" xmlns:xlink="http://www.w3.org/1999/xlink" x="0px" y="0px"
	 viewBox="0 0 171.235 76" style="enable-background:new 0 0 171.235 76;" xml:space="preserve">
<g>
	<g id="XMLID_18_">
		<path id="XMLID_19_" style="fill:#FFFFFF;" d="M20.257,20.736v4.446c-2.172-1.818-4.421-2.727-6.745-2.727
			c-2.56,0-4.717,0.92-6.472,2.76c-1.764,1.829-2.646,4.066-2.646,6.713c0,2.614,0.882,4.819,2.646,6.615
			c1.765,1.797,3.928,2.696,6.489,2.696c1.323,0,2.446-0.216,3.372-0.646c0.517-0.215,1.051-0.505,1.607-0.871
			c0.554-0.366,1.136-0.807,1.749-1.323v4.542c-2.151,1.222-4.41,1.832-6.777,1.832c-3.561,0-6.601-1.242-9.119-3.728
			c-2.506-2.507-3.759-5.529-3.759-9.069c0-3.173,1.049-6.004,3.146-8.488c2.582-3.045,5.922-4.567,10.021-4.567
			C16.008,18.921,18.17,19.527,20.257,20.736z"/>
		<path id="XMLID_20_" style="fill:#FFFFFF;" d="M41.925,38.27H31.257l-2.777,6.051h-4.05L36.759,17.84l11.893,26.481h-4.114
			L41.925,38.27z M40.391,34.736l-3.696-8.472l-3.874,8.472H40.391z"/>
		<path id="XMLID_21_" style="fill:#FFFFFF;" d="M69.996,23.101l-3.05,1.808c-0.571-0.99-1.113-1.635-1.63-1.937
			c-0.538-0.344-1.232-0.516-2.082-0.516c-1.044,0-1.91,0.296-2.598,0.888c-0.689,0.582-1.033,1.313-1.033,2.196
			c0,1.216,0.903,2.195,2.71,2.939l2.486,1.017c2.023,0.819,3.502,1.817,4.438,2.996c0.936,1.179,1.403,2.625,1.403,4.336
			c0,2.293-0.764,4.188-2.29,5.684c-1.54,1.507-3.449,2.261-5.729,2.261c-2.162,0-3.948-0.643-5.358-1.929
			c-1.388-1.285-2.254-3.09-2.598-5.413l3.808-0.84c0.172,1.462,0.474,2.474,0.905,3.034c0.774,1.076,1.904,1.614,3.389,1.614
			c1.172,0,2.146-0.393,2.92-1.178c0.775-0.785,1.162-1.779,1.162-2.983c0-0.484-0.067-0.927-0.202-1.33
			c-0.134-0.403-0.344-0.774-0.629-1.112c-0.285-0.339-0.653-0.656-1.105-0.951c-0.452-0.296-0.99-0.578-1.615-0.847l-2.405-0.999
			c-3.41-1.441-5.115-3.548-5.115-6.321c0-1.87,0.716-3.435,2.146-4.692c1.43-1.269,3.211-1.904,5.342-1.904
			C66.139,18.921,68.382,20.314,69.996,23.101z"/>
		<path id="XMLID_22_" style="fill:#FFFFFF;" d="M94.147,38.27H83.48l-2.776,6.051h-4.051L88.983,17.84l11.893,26.481h-4.115
			L94.147,38.27z M92.615,34.736l-3.697-8.472l-3.873,8.472H92.615z"/>
	</g>
	<g id="XMLID_23_">
		<path id="XMLID_345_" style="fill:#FFFFFF;" d="M139.872,28.179v-3.577l-13.435-7.308c-0.005-0.002-0.01-0.005-0.014-0.007
			c-0.024-0.012-0.048-0.021-0.074-0.028c-0.051-0.013-0.105-0.016-0.162-0.008l-4.953,0.696c-0.092,0.013-0.178-0.004-0.25-0.043
			L139.872,28.179z"/>
		<path id="XMLID_344_" style="fill:#FFFFFF;" d="M139.872,14.99l-13.417-7.299c-0.005-0.002-0.01-0.005-0.014-0.007
			c-0.023-0.012-0.048-0.021-0.074-0.028c-0.051-0.013-0.105-0.016-0.162-0.008l-4.954,0.696c-0.092,0.013-0.178-0.004-0.25-0.043
			l18.871,10.265V14.99z"/>
		<path id="XMLID_343_" style="fill:#FFFFFF;" d="M139.872,32.994v-3.573l-13.443-7.313c-0.005-0.002-0.01-0.005-0.015-0.007
			c-0.024-0.012-0.048-0.021-0.074-0.027c-0.05-0.014-0.105-0.016-0.162-0.009l-4.953,0.696c-0.089,0.013-0.172-0.004-0.243-0.042
			L139.872,32.994z"/>
		<path id="XMLID_342_" style="fill:#FFFFFF;" d="M139.872,37.805v-3.577l-13.453-7.318c-0.005-0.002-0.009-0.004-0.014-0.007
			c-0.024-0.012-0.048-0.021-0.074-0.027c-0.051-0.014-0.105-0.016-0.163-0.009l-4.953,0.696c-0.092,0.013-0.178-0.004-0.25-0.043
			L139.872,37.805z"/>
		<path id="XMLID_341_" style="fill:#FFFFFF;" d="M139.872,47.416v-3.577l-13.471-7.328c-0.005-0.002-0.009-0.005-0.014-0.007
			c-0.024-0.012-0.048-0.021-0.074-0.027c-0.05-0.013-0.105-0.017-0.162-0.009l-4.953,0.696c-0.092,0.013-0.178-0.004-0.25-0.043
			L139.872,47.416z"/>
		<path id="XMLID_340_" style="fill:#FFFFFF;" d="M139.872,42.61v-3.577l-13.461-7.323c-0.005-0.003-0.01-0.005-0.015-0.008
			c-0.024-0.011-0.048-0.02-0.074-0.027c-0.05-0.013-0.105-0.016-0.162-0.008l-4.953,0.696c-0.092,0.013-0.178-0.004-0.25-0.043
			L139.872,42.61z"/>
		<path id="XMLID_339_" style="fill:#FFFFFF;" d="M141.806,30.473v3.574l14.237,7.745c0.005,0.002,0.01,0.005,0.014,0.008
			c0.023,0.011,0.047,0.02,0.073,0.027c0.049,0.012,0.101,0.016,0.155,0.008l4.953-0.696c0.092-0.013,0.179,0.004,0.25,0.043
			l-0.001-0.001l0.002,0.001L141.806,30.473z"/>
		<path id="XMLID_338_" style="fill:#FFFFFF;" d="M141.806,35.28v3.577l14.221,7.737c0.005,0.002,0.01,0.005,0.014,0.007
			c0.024,0.012,0.048,0.02,0.074,0.027c0.051,0.013,0.105,0.016,0.162,0.008l4.954-0.696c0.092-0.013,0.178,0.004,0.25,0.043
			l-0.002-0.001l0.002,0.001L141.806,35.28z"/>
		<path id="XMLID_337_" style="fill:#FFFFFF;" d="M139.872,23.373v-3.577l-13.426-7.303c-0.004-0.002-0.009-0.005-0.014-0.008
			c-0.024-0.012-0.048-0.021-0.074-0.028c-0.05-0.013-0.105-0.016-0.162-0.008l-4.954,0.696c-0.092,0.013-0.178-0.004-0.25-0.043
			L139.872,23.373z"/>
		<path id="XMLID_336_" style="fill:#FFFFFF;" d="M141.806,58.187v9.161l15.817,8.604c0.005,0.003,0.009,0.005,0.014,0.007
			c0.023,0.012,0.048,0.021,0.074,0.028c0.051,0.013,0.105,0.017,0.162,0.008l13.111-1.843c0.092-0.013,0.178,0.004,0.25,0.043
			L141.806,58.187z"/>
		<path id="XMLID_335_" style="fill:#FFFFFF;" d="M141.806,20.848v3.577l14.248,7.751c0.004,0.003,0.009,0.005,0.014,0.008
			c0.024,0.011,0.049,0.02,0.074,0.027c0.051,0.013,0.105,0.016,0.162,0.008l4.954-0.696c0.092-0.013,0.178,0.003,0.25,0.043
			L141.806,20.848z"/>
		<path id="XMLID_334_" style="fill:#FFFFFF;" d="M141.806,40.086v3.577l14.212,7.731c0.005,0.002,0.01,0.005,0.014,0.007
			c0.024,0.012,0.048,0.021,0.074,0.027c0.05,0.013,0.105,0.016,0.162,0.009l4.953-0.696c0.092-0.013,0.179,0.004,0.251,0.043
			L141.806,40.086z"/>
		<path id="XMLID_333_" style="fill:#FFFFFF;" d="M141.806,25.654v3.577l14.239,7.745c0.005,0.003,0.01,0.005,0.015,0.008
			c0.023,0.012,0.048,0.021,0.074,0.027c0.051,0.013,0.105,0.017,0.162,0.008l4.954-0.696c0.092-0.013,0.178,0.003,0.25,0.043
			L141.806,25.654z"/>
		<path id="XMLID_332_" style="fill:#FFFFFF;" d="M122.562,56.879l17.31,9.416v-9.161l-3.699-2.012
			c-0.005-0.003-0.01-0.005-0.014-0.008c-0.024-0.011-0.048-0.02-0.074-0.027c-0.051-0.013-0.106-0.016-0.163-0.008l-0.726,0.102
			l-8.821-4.798c-0.005-0.002-0.01-0.005-0.014-0.007c-0.024-0.012-0.049-0.021-0.074-0.028c-0.051-0.013-0.105-0.016-0.162-0.008
			l-4.953,0.696c-0.092,0.013-0.178-0.004-0.25-0.043l0,0l9.049,4.923l-7.159,1.006C122.72,56.935,122.634,56.918,122.562,56.879z"
			/>
		<path id="XMLID_331_" style="fill:#FFFFFF;" d="M141.806,49.698v3.577l14.194,7.721c0.004,0.002,0.009,0.005,0.014,0.007
			c0.023,0.012,0.048,0.021,0.074,0.027c0.051,0.014,0.105,0.017,0.162,0.009l4.954-0.696c0.092-0.013,0.178,0.004,0.25,0.043
			L141.806,49.698z"/>
		<path id="XMLID_330_" style="fill:#FFFFFF;" d="M141.806,44.892v3.577l14.203,7.727c0.005,0.002,0.01,0.005,0.015,0.007
			c0.023,0.012,0.048,0.021,0.074,0.027c0.05,0.013,0.105,0.016,0.161,0.009l4.954-0.696c0.092-0.013,0.178,0.004,0.25,0.043
			L141.806,44.892z"/>
		<path id="XMLID_329_" style="fill:#FFFFFF;" d="M156.006,65.805c0.023,0.012,0.048,0.021,0.074,0.028
			c0.05,0.013,0.105,0.016,0.162,0.008l4.953-0.696c0.092-0.013,0.178,0.004,0.25,0.043l-19.639-10.684v3.577l14.185,7.717
			C155.996,65.8,156.001,65.803,156.006,65.805z"/>
		<path id="XMLID_328_" style="fill:#FFFFFF;" d="M139.872,57.028v-3.577l-13.488-7.338c-0.004-0.002-0.009-0.004-0.014-0.007
			c-0.023-0.012-0.048-0.021-0.074-0.027c-0.051-0.013-0.105-0.016-0.162-0.009l-4.954,0.696c-0.092,0.013-0.178-0.004-0.25-0.043
			L139.872,57.028z"/>
		<path id="XMLID_327_" style="fill:#FFFFFF;" d="M139.872,52.222v-3.577l-13.479-7.333c-0.004-0.002-0.01-0.005-0.014-0.007
			c-0.023-0.012-0.048-0.021-0.074-0.027c-0.05-0.013-0.105-0.017-0.162-0.009l-4.953,0.696c-0.092,0.013-0.178-0.004-0.25-0.043
			L139.872,52.222z"/>
		<path id="XMLID_326_" style="fill:#FFFFFF;" d="M141.806,16.043v3.577l14.257,7.755c0.005,0.002,0.01,0.005,0.014,0.008
			c0.024,0.011,0.048,0.021,0.074,0.027c0.051,0.013,0.105,0.016,0.162,0.008l4.953-0.696c0.092-0.013,0.178,0.003,0.25,0.043
			L141.806,16.043z"/>
		<path id="XMLID_324_" style="fill:#FFFFFF;" d="M124.933,0.735l6.808,3.704c0.005,0.002,0.01,0.005,0.015,0.007
			c0.023,0.012,0.048,0.021,0.074,0.028c0.05,0.013,0.105,0.016,0.162,0.008l4.954-0.696c0.092-0.013,0.178,0.004,0.25,0.043
			L130.159,0L124.933,0.735z"/>
		<path id="XMLID_323_" style="fill:#FFFFFF;" d="M149.123,13.886l4.402,2.395l5.226-0.734l-4.403-2.395l1.034-0.145
			c0.12-0.017,0.228-0.032,0.311-0.042c0.027-0.004,0.03-0.002,0.051-0.004c0.046-0.005,0.097-0.01,0.103-0.007l0.002,0.001
			c0.011-0.001,0.21-0.029,0.468-0.066l4.953-0.696c0.09-0.013,0.174,0.004,0.245,0.043l-21.08-11.467l-3.761,0.529
			c-0.258,0.036-0.487,0.068-0.653,0.092c-0.165,0.023-0.267,0.037-0.279,0.04l-0.005-0.002l0,0l-0.003-0.002
			c-0.023-0.004-0.126,0.008-0.218,0.017c-0.037,0.004-0.041,0.002-0.086,0.007c-0.166,0.021-0.383,0.051-0.625,0.085l-13.69,1.924
			l34.935,19.004c0.004,0.002,0.01,0.005,0.014,0.007c0.023,0.012,0.048,0.021,0.074,0.028c0.051,0.014,0.106,0.016,0.163,0.008
			l4.953-0.696c0.092-0.013,0.178,0.004,0.25,0.043l-14.177-7.712L149.123,13.886z"/>
	</g>
	<g>
		<g>
			<path style="fill:#FFFFFF;" d="M22.85,53.527h0.54c0.833,0,1.619,0.217,1.619,1.214c0,0.323-0.176,0.698-0.475,0.839v0.012
				c0.522,0.094,0.886,0.604,0.886,1.12c0,0.886-0.757,1.238-1.537,1.238H22.85V53.527z M23.401,55.487h0.141
				c0.522,0,0.95-0.106,0.95-0.739c0-0.622-0.422-0.727-0.939-0.727h-0.153V55.487z M23.401,57.458h0.422
				c0.51,0,1.044-0.153,1.044-0.78c0-0.622-0.634-0.751-1.126-0.751h-0.34V57.458z"/>
			<polygon style="fill:#FFFFFF;" points="27.406,53.527 28.04,53.527 29.125,55.416 30.21,53.527 30.844,53.527 29.401,56.027 
				29.401,57.951 28.85,57.951 28.85,56.027 			"/>
			<polygon style="fill:#FFFFFF;" points="37.33,55.029 37.318,55.029 36.802,57.951 36.233,57.951 37.136,53.34 38.656,56.824 
				40.175,53.34 41.078,57.951 40.51,57.951 39.993,55.029 39.981,55.029 38.656,58.044 			"/>
			<polygon style="fill:#FFFFFF;" points="43.74,53.527 46.116,53.527 46.116,54.032 44.292,54.032 44.292,55.27 46.063,55.27 
				46.063,55.774 44.292,55.774 44.292,57.446 46.116,57.446 46.116,57.951 43.74,57.951 			"/>
			<path style="fill:#FFFFFF;" d="M51.629,57.951H50.96l-1.302-1.871h-0.229v1.871h-0.551v-4.423h0.669
				c0.393,0,0.816,0.006,1.167,0.205c0.37,0.217,0.581,0.634,0.581,1.056c0,0.634-0.422,1.162-1.062,1.238L51.629,57.951z
				 M49.429,55.622h0.176c0.563,0,1.173-0.106,1.173-0.81c0-0.692-0.657-0.792-1.203-0.792h-0.147V55.622z"/>
			<rect x="54.386" y="53.528" style="fill:#FFFFFF;" width="0.551" height="4.423"/>
			<path style="fill:#FFFFFF;" d="M57.59,53.527h0.915c1.355,0,2.481,0.716,2.481,2.188c0,1.508-1.103,2.235-2.499,2.235H57.59
				V53.527z M58.141,57.446h0.194c1.126,0,2.1-0.422,2.1-1.707c0-1.29-0.974-1.707-2.1-1.707h-0.194V57.446z"/>
			<rect x="63.851" y="53.528" style="fill:#FFFFFF;" width="0.551" height="4.423"/>
			<path style="fill:#FFFFFF;" d="M68.26,56.842l-0.505,1.109h-0.592l2.112-4.611l2.112,4.611h-0.592l-0.505-1.109H68.26z
				 M69.275,54.548l-0.786,1.789h1.572L69.275,54.548z"/>
			<polygon style="fill:#FFFFFF;" points="74.155,53.316 77.475,56.795 77.475,53.527 78.027,53.527 78.027,58.133 74.706,54.654 
				74.706,57.951 74.155,57.951 			"/>
			<g>
				<rect x="0" y="55.336" style="fill:#FFFFFF;" width="18.598" height="0.675"/>
			</g>
			<g>
				<rect x="82.278" y="55.336" style="fill:#FFFFFF;" width="18.598" height="0.675"/>
			</g>
		</g>
		<g>
			<path style="fill:#FFFFFF;" d="M23.559,63.354H23.04v-2.662h0.519V63.354z"/>
			<path style="fill:#FFFFFF;" d="M24.643,60.622h0.374l1.401,1.86h0.007v-1.79h0.519v2.715h-0.374l-1.401-1.86h-0.007v1.807h-0.519
				V60.622z"/>
			<path style="fill:#FFFFFF;" d="M28.894,63.354h-0.519v-2.21h-0.537v-0.452h1.592v0.452h-0.537V63.354z"/>
			<path style="fill:#FFFFFF;" d="M30.846,61.144v0.586h0.826v0.452h-0.826v0.72h0.858v0.452h-1.377v-2.662h1.377v0.452H30.846z"/>
			<path style="fill:#FFFFFF;" d="M34.557,63.354h-0.628l-0.646-1.073h-0.007v1.073h-0.519v-2.662h0.702
				c0.526,0,0.89,0.233,0.89,0.801c0,0.339-0.187,0.678-0.544,0.738L34.557,63.354z M33.276,61.917h0.067
				c0.286,0,0.487-0.085,0.487-0.409c0-0.328-0.208-0.392-0.484-0.392h-0.071V61.917z"/>
			<path style="fill:#FFFFFF;" d="M35.433,60.622h0.374l1.401,1.86h0.007v-1.79h0.519v2.715H37.36l-1.401-1.86h-0.007v1.807h-0.519
				V60.622z"/>
			<path style="fill:#FFFFFF;" d="M39.362,62.793l-0.219,0.561h-0.547l1.038-2.732h0.402l1.01,2.732h-0.554l-0.205-0.561H39.362z
				 M39.811,61.402h-0.007l-0.293,0.967h0.632L39.811,61.402z"/>
			<path style="fill:#FFFFFF;" d="M42.494,63.354h-0.519v-2.21h-0.537v-0.452h1.592v0.452h-0.537V63.354z"/>
			<path style="fill:#FFFFFF;" d="M44.446,63.354h-0.519v-2.662h0.519V63.354z"/>
			<path style="fill:#FFFFFF;" d="M46.72,63.425c-0.812,0-1.317-0.621-1.317-1.405c0-0.791,0.522-1.398,1.317-1.398
				c0.794,0,1.317,0.607,1.317,1.398C48.037,62.803,47.532,63.425,46.72,63.425z M46.72,61.134c-0.491,0-0.78,0.434-0.78,0.865
				c0,0.409,0.205,0.914,0.78,0.914c0.575,0,0.78-0.505,0.78-0.914C47.5,61.568,47.211,61.134,46.72,61.134z"/>
			<path style="fill:#FFFFFF;" d="M48.998,60.622h0.374l1.401,1.86h0.007v-1.79h0.519v2.715h-0.374l-1.401-1.86h-0.007v1.807h-0.519
				V60.622z"/>
			<path style="fill:#FFFFFF;" d="M52.927,62.793l-0.219,0.561h-0.547l1.038-2.732h0.402l1.01,2.732h-0.554l-0.205-0.561H52.927z
				 M53.375,61.402h-0.007l-0.293,0.967h0.632L53.375,61.402z"/>
			<path style="fill:#FFFFFF;" d="M55.995,62.902h0.734v0.452h-1.253v-2.662h0.519V62.902z"/>
			<path style="fill:#FFFFFF;" d="M60.807,61.741v-1.048h0.519v2.662h-0.519v-1.19h-0.96v1.19h-0.519v-2.662h0.519v1.048H60.807z"/>
			<path style="fill:#FFFFFF;" d="M63.604,63.425c-0.812,0-1.317-0.621-1.317-1.405c0-0.791,0.522-1.398,1.317-1.398
				c0.794,0,1.317,0.607,1.317,1.398C64.92,62.803,64.415,63.425,63.604,63.425z M63.604,61.134c-0.491,0-0.78,0.434-0.78,0.865
				c0,0.409,0.205,0.914,0.78,0.914c0.575,0,0.78-0.505,0.78-0.914C64.384,61.568,64.094,61.134,63.604,61.134z"/>
			<path style="fill:#FFFFFF;" d="M66.4,62.902h0.734v0.452h-1.253v-2.662H66.4V62.902z"/>
			<path style="fill:#FFFFFF;" d="M68.007,60.692h0.741c0.769,0,1.285,0.575,1.285,1.334c0,0.748-0.529,1.327-1.288,1.327h-0.738
				V60.692z M68.525,62.902h0.085c0.639,0,0.886-0.353,0.886-0.879c0-0.579-0.296-0.879-0.886-0.879h-0.085V62.902z"/>
			<path style="fill:#FFFFFF;" d="M71.512,63.354h-0.519v-2.662h0.519V63.354z"/>
			<path style="fill:#FFFFFF;" d="M72.596,60.622h0.374l1.401,1.86h0.007v-1.79h0.519v2.715h-0.374l-1.401-1.86h-0.007v1.807h-0.519
				V60.622z"/>
			<path style="fill:#FFFFFF;" d="M78.333,61.938v0.067c0,0.752-0.385,1.419-1.211,1.419c-0.777,0-1.267-0.657-1.267-1.391
				c0-0.759,0.505-1.412,1.299-1.412c0.452,0,0.847,0.229,1.052,0.635l-0.459,0.247c-0.106-0.24-0.332-0.424-0.607-0.424
				c-0.501,0-0.748,0.512-0.748,0.953c0,0.441,0.251,0.932,0.752,0.932c0.325,0,0.597-0.282,0.607-0.604h-0.565v-0.424H78.333z"/>
		</g>
	</g>
</g>
</svg>
