<?xml version="1.0" encoding="utf-8"?>
<!-- Generator: Adobe Illustrator 18.1.1, SVG Export Plug-In . SVG Version: 6.00 Build 0)  -->
<svg version="1.1" id="Layer_1" xmlns="http://www.w3.org/2000/svg" xmlns:xlink="http://www.w3.org/1999/xlink" x="0px" y="0px"
	 viewBox="874.4 890.1 171.2 76" enable-background="new 874.4 890.1 171.2 76" xml:space="preserve">
<g>
	<g id="XMLID_18_">
		<path id="XMLID_19_" fill="#463428" d="M894.6,910.8v4.4c-2.2-1.8-4.4-2.7-6.7-2.7c-2.6,0-4.7,0.9-6.5,2.8
			c-1.8,1.8-2.6,4.1-2.6,6.7c0,2.6,0.9,4.8,2.6,6.6c1.8,1.8,3.9,2.7,6.5,2.7c1.3,0,2.4-0.2,3.4-0.6c0.5-0.2,1.1-0.5,1.6-0.9
			c0.6-0.4,1.1-0.8,1.7-1.3v4.5c-2.2,1.2-4.4,1.8-6.8,1.8c-3.6,0-6.6-1.2-9.1-3.7c-2.5-2.5-3.8-5.5-3.8-9.1c0-3.2,1-6,3.1-8.5
			c2.6-3,5.9-4.6,10-4.6C890.4,909,892.5,909.6,894.6,910.8z"/>
		<path id="XMLID_20_" fill="#463428" d="M916.3,928.3h-10.7l-2.8,6.1h-4l12.3-26.5l11.9,26.5h-4.1L916.3,928.3z M914.8,924.8
			l-3.7-8.5l-3.9,8.5H914.8z"/>
		<path id="XMLID_21_" fill="#463428" d="M944.4,913.2l-3.1,1.8c-0.6-1-1.1-1.6-1.6-1.9c-0.5-0.3-1.2-0.5-2.1-0.5
			c-1,0-1.9,0.3-2.6,0.9c-0.7,0.6-1,1.3-1,2.2c0,1.2,0.9,2.2,2.7,2.9l2.5,1c2,0.8,3.5,1.8,4.4,3c0.9,1.2,1.4,2.6,1.4,4.3
			c0,2.3-0.8,4.2-2.3,5.7c-1.5,1.5-3.4,2.3-5.7,2.3c-2.2,0-3.9-0.6-5.4-1.9c-1.4-1.3-2.3-3.1-2.6-5.4l3.8-0.8c0.2,1.5,0.5,2.5,0.9,3
			c0.8,1.1,1.9,1.6,3.4,1.6c1.2,0,2.1-0.4,2.9-1.2c0.8-0.8,1.2-1.8,1.2-3c0-0.5-0.1-0.9-0.2-1.3c-0.1-0.4-0.3-0.8-0.6-1.1
			c-0.3-0.3-0.7-0.7-1.1-1c-0.5-0.3-1-0.6-1.6-0.8l-2.4-1c-3.4-1.4-5.1-3.5-5.1-6.3c0-1.9,0.7-3.4,2.1-4.7c1.4-1.3,3.2-1.9,5.3-1.9
			C940.5,909,942.8,910.4,944.4,913.2z"/>
		<path id="XMLID_22_" fill="#463428" d="M968.5,928.3h-10.7l-2.8,6.1H951l12.3-26.5l11.9,26.5h-4.1L968.5,928.3z M967,924.8
			l-3.7-8.5l-3.9,8.5H967z"/>
	</g>
	<g id="XMLID_23_">
		<path id="XMLID_345_" fill="#463428" d="M1014.2,918.3v-3.6l-13.4-7.3c0,0,0,0,0,0c0,0,0,0-0.1,0c-0.1,0-0.1,0-0.2,0l-5,0.7
			c-0.1,0-0.2,0-0.3,0L1014.2,918.3z"/>
		<path id="XMLID_344_" fill="#463428" d="M1014.2,905.1l-13.4-7.3c0,0,0,0,0,0c0,0,0,0-0.1,0c-0.1,0-0.1,0-0.2,0l-5,0.7
			c-0.1,0-0.2,0-0.3,0l18.9,10.3V905.1z"/>
		<path id="XMLID_343_" fill="#463428" d="M1014.2,923.1v-3.6l-13.4-7.3c0,0,0,0,0,0c0,0,0,0-0.1,0c0,0-0.1,0-0.2,0l-5,0.7
			c-0.1,0-0.2,0-0.2,0L1014.2,923.1z"/>
		<path id="XMLID_342_" fill="#463428" d="M1014.2,927.9v-3.6l-13.5-7.3c0,0,0,0,0,0c0,0,0,0-0.1,0c-0.1,0-0.1,0-0.2,0l-5,0.7
			c-0.1,0-0.2,0-0.3,0L1014.2,927.9z"/>
		<path id="XMLID_341_" fill="#463428" d="M1014.2,937.5v-3.6l-13.5-7.3c0,0,0,0,0,0c0,0,0,0-0.1,0c0,0-0.1,0-0.2,0l-5,0.7
			c-0.1,0-0.2,0-0.3,0L1014.2,937.5z"/>
		<path id="XMLID_340_" fill="#463428" d="M1014.2,932.7v-3.6l-13.5-7.3c0,0,0,0,0,0c0,0,0,0-0.1,0c-0.1,0-0.1,0-0.2,0l-5,0.7
			c-0.1,0-0.2,0-0.3,0L1014.2,932.7z"/>
		<path id="XMLID_339_" fill="#463428" d="M1016.2,920.6v3.6l14.2,7.7c0,0,0,0,0,0c0,0,0,0,0.1,0c0,0,0.1,0,0.2,0l5-0.7
			c0.1,0,0.2,0,0.3,0l0,0l0,0L1016.2,920.6z"/>
		<path id="XMLID_338_" fill="#463428" d="M1016.2,925.4v3.6l14.2,7.7c0,0,0,0,0,0c0,0,0,0,0.1,0c0.1,0,0.1,0,0.2,0l5-0.7
			c0.1,0,0.2,0,0.3,0l0,0l0,0L1016.2,925.4z"/>
		<path id="XMLID_337_" fill="#463428" d="M1014.2,913.5v-3.6l-13.4-7.3c0,0,0,0,0,0c0,0,0,0-0.1,0c0,0-0.1,0-0.2,0l-5,0.7
			c-0.1,0-0.2,0-0.3,0L1014.2,913.5z"/>
		<path id="XMLID_336_" fill="#463428" d="M1016.2,948.3v9.2l15.8,8.6c0,0,0,0,0,0c0,0,0,0,0.1,0c0.1,0,0.1,0,0.2,0l13.1-1.8
			c0.1,0,0.2,0,0.3,0L1016.2,948.3z"/>
		<path id="XMLID_335_" fill="#463428" d="M1016.2,910.9v3.6l14.2,7.8c0,0,0,0,0,0c0,0,0,0,0.1,0c0.1,0,0.1,0,0.2,0l5-0.7
			c0.1,0,0.2,0,0.3,0L1016.2,910.9z"/>
		<path id="XMLID_334_" fill="#463428" d="M1016.2,930.2v3.6l14.2,7.7c0,0,0,0,0,0c0,0,0,0,0.1,0c0.1,0,0.1,0,0.2,0l5-0.7
			c0.1,0,0.2,0,0.3,0L1016.2,930.2z"/>
		<path id="XMLID_333_" fill="#463428" d="M1016.2,915.7v3.6l14.2,7.7c0,0,0,0,0,0c0,0,0,0,0.1,0c0.1,0,0.1,0,0.2,0l5-0.7
			c0.1,0,0.2,0,0.3,0L1016.2,915.7z"/>
		<path id="XMLID_332_" fill="#463428" d="M996.9,947l17.3,9.4v-9.2l-3.7-2c0,0,0,0,0,0c0,0,0,0-0.1,0c-0.1,0-0.1,0-0.2,0l-0.7,0.1
			l-8.8-4.8c0,0,0,0,0,0c0,0,0,0-0.1,0c-0.1,0-0.1,0-0.2,0l-5,0.7c-0.1,0-0.2,0-0.3,0l0,0l9,4.9l-7.2,1C997.1,947,997,947,996.9,947
			z"/>
		<path id="XMLID_331_" fill="#463428" d="M1016.2,939.8v3.6l14.2,7.7c0,0,0,0,0,0c0,0,0,0,0.1,0c0.1,0,0.1,0,0.2,0l5-0.7
			c0.1,0,0.2,0,0.3,0L1016.2,939.8z"/>
		<path id="XMLID_330_" fill="#463428" d="M1016.2,935v3.6l14.2,7.7c0,0,0,0,0,0c0,0,0,0,0.1,0c0,0,0.1,0,0.2,0l5-0.7
			c0.1,0,0.2,0,0.3,0L1016.2,935z"/>
		<path id="XMLID_329_" fill="#463428" d="M1030.4,955.9C1030.4,955.9,1030.4,955.9,1030.4,955.9c0.1,0,0.2,0,0.2,0l5-0.7
			c0.1,0,0.2,0,0.3,0l-19.6-10.7v3.6L1030.4,955.9C1030.4,955.9,1030.4,955.9,1030.4,955.9z"/>
		<path id="XMLID_328_" fill="#463428" d="M1014.2,947.1v-3.6l-13.5-7.3c0,0,0,0,0,0c0,0,0,0-0.1,0c-0.1,0-0.1,0-0.2,0l-5,0.7
			c-0.1,0-0.2,0-0.3,0L1014.2,947.1z"/>
		<path id="XMLID_327_" fill="#463428" d="M1014.2,942.3v-3.6l-13.5-7.3c0,0,0,0,0,0c0,0,0,0-0.1,0c0,0-0.1,0-0.2,0l-5,0.7
			c-0.1,0-0.2,0-0.3,0L1014.2,942.3z"/>
		<path id="XMLID_326_" fill="#463428" d="M1016.2,906.1v3.6l14.3,7.8c0,0,0,0,0,0c0,0,0,0,0.1,0c0.1,0,0.1,0,0.2,0l5-0.7
			c0.1,0,0.2,0,0.3,0L1016.2,906.1z"/>
		<path id="XMLID_324_" fill="#463428" d="M999.3,890.8l6.8,3.7c0,0,0,0,0,0c0,0,0,0,0.1,0c0,0,0.1,0,0.2,0l5-0.7c0.1,0,0.2,0,0.3,0
			l-7-3.8L999.3,890.8z"/>
		<path id="XMLID_323_" fill="#463428" d="M1023.5,904l4.4,2.4l5.2-0.7l-4.4-2.4l1-0.1c0.1,0,0.2,0,0.3,0c0,0,0,0,0.1,0
			c0,0,0.1,0,0.1,0l0,0c0,0,0.2,0,0.5-0.1l5-0.7c0.1,0,0.2,0,0.2,0l-21.1-11.5l-3.8,0.5c-0.3,0-0.5,0.1-0.7,0.1c-0.2,0-0.3,0-0.3,0
			l0,0l0,0l0,0c0,0-0.1,0-0.2,0c0,0,0,0-0.1,0c-0.2,0-0.4,0.1-0.6,0.1l-13.7,1.9l34.9,19c0,0,0,0,0,0c0,0,0,0,0.1,0
			c0.1,0,0.1,0,0.2,0l5-0.7c0.1,0,0.2,0,0.3,0l-14.2-7.7L1023.5,904z"/>
	</g>
	<g>
		<g>
			<path fill="#463428" d="M897.2,943.6h0.5c0.8,0,1.6,0.2,1.6,1.2c0,0.3-0.2,0.7-0.5,0.8v0c0.5,0.1,0.9,0.6,0.9,1.1
				c0,0.9-0.8,1.2-1.5,1.2h-1V943.6z M897.8,945.6h0.1c0.5,0,1-0.1,1-0.7c0-0.6-0.4-0.7-0.9-0.7h-0.2L897.8,945.6L897.8,945.6z
				 M897.8,947.5h0.4c0.5,0,1-0.2,1-0.8c0-0.6-0.6-0.8-1.1-0.8h-0.3V947.5L897.8,947.5z"/>
			<polygon fill="#463428" points="901.8,943.6 902.4,943.6 903.5,945.5 904.6,943.6 905.2,943.6 903.8,946.1 903.8,948 903.2,948 
				903.2,946.1 			"/>
			<polygon fill="#463428" points="911.7,945.1 911.7,945.1 911.2,948 910.6,948 911.5,943.4 913,946.9 914.6,943.4 915.5,948 
				914.9,948 914.4,945.1 914.4,945.1 913,948.1 			"/>
			<polygon fill="#463428" points="918.1,943.6 920.5,943.6 920.5,944.1 918.7,944.1 918.7,945.3 920.4,945.3 920.4,945.9 
				918.7,945.9 918.7,947.5 920.5,947.5 920.5,948 918.1,948 			"/>
			<path fill="#463428" d="M926,948h-0.7l-1.3-1.9h-0.2v1.9h-0.6v-4.4h0.7c0.4,0,0.8,0,1.2,0.2c0.4,0.2,0.6,0.6,0.6,1.1
				c0,0.6-0.4,1.2-1.1,1.2L926,948z M923.8,945.7h0.2c0.6,0,1.2-0.1,1.2-0.8c0-0.7-0.7-0.8-1.2-0.8h-0.1L923.8,945.7L923.8,945.7z"
				/>
			<rect x="928.8" y="943.6" fill="#463428" width="0.6" height="4.4"/>
			<path fill="#463428" d="M932,943.6h0.9c1.4,0,2.5,0.7,2.5,2.2c0,1.5-1.1,2.2-2.5,2.2H932V943.6z M932.5,947.5h0.2
				c1.1,0,2.1-0.4,2.1-1.7c0-1.3-1-1.7-2.1-1.7h-0.2V947.5z"/>
			<rect x="938.2" y="943.6" fill="#463428" width="0.6" height="4.4"/>
			<path fill="#463428" d="M942.6,946.9l-0.5,1.1h-0.6l2.1-4.6l2.1,4.6h-0.6l-0.5-1.1H942.6z M943.7,944.6l-0.8,1.8h1.6L943.7,944.6
				z"/>
			<polygon fill="#463428" points="948.5,943.4 951.9,946.9 951.9,943.6 952.4,943.6 952.4,948.2 949.1,944.7 949.1,948 948.5,948 
							"/>
			<g>
				<rect x="874.4" y="945.4" fill="#463428" width="18.6" height="0.7"/>
			</g>
			<g>
				<rect x="956.7" y="945.4" fill="#463428" width="18.6" height="0.7"/>
			</g>
		</g>
		<g>
			<path fill="#463428" d="M897.9,953.4h-0.5v-2.7h0.5V953.4z"/>
			<path fill="#463428" d="M899,950.7h0.4l1.4,1.9h0v-1.8h0.5v2.7h-0.4l-1.4-1.9h0v1.8H899V950.7z"/>
			<path fill="#463428" d="M903.3,953.4h-0.5v-2.2h-0.5v-0.5h1.6v0.5h-0.5L903.3,953.4L903.3,953.4z"/>
			<path fill="#463428" d="M905.2,951.2v0.6h0.8v0.5h-0.8v0.7h0.9v0.5h-1.4v-2.7h1.4v0.5H905.2z"/>
			<path fill="#463428" d="M908.9,953.4h-0.6l-0.6-1.1h0v1.1h-0.5v-2.7h0.7c0.5,0,0.9,0.2,0.9,0.8c0,0.3-0.2,0.7-0.5,0.7
				L908.9,953.4z M907.7,952L907.7,952c0.4,0,0.6-0.1,0.6-0.4c0-0.3-0.2-0.4-0.5-0.4h-0.1L907.7,952L907.7,952z"/>
			<path fill="#463428" d="M909.8,950.7h0.4l1.4,1.9h0v-1.8h0.5v2.7h-0.4l-1.4-1.9h0v1.8h-0.5V950.7z"/>
			<path fill="#463428" d="M913.7,952.9l-0.2,0.6H913l1-2.7h0.4l1,2.7h-0.6l-0.2-0.6H913.7z M914.2,951.5L914.2,951.5l-0.3,1h0.6
				L914.2,951.5z"/>
			<path fill="#463428" d="M916.9,953.4h-0.5v-2.2h-0.5v-0.5h1.6v0.5h-0.5L916.9,953.4L916.9,953.4z"/>
			<path fill="#463428" d="M918.8,953.4h-0.5v-2.7h0.5V953.4z"/>
			<path fill="#463428" d="M921.1,953.5c-0.8,0-1.3-0.6-1.3-1.4c0-0.8,0.5-1.4,1.3-1.4c0.8,0,1.3,0.6,1.3,1.4
				C922.4,952.9,921.9,953.5,921.1,953.5z M921.1,951.2c-0.5,0-0.8,0.4-0.8,0.9c0,0.4,0.2,0.9,0.8,0.9s0.8-0.5,0.8-0.9
				C921.9,951.6,921.6,951.2,921.1,951.2z"/>
			<path fill="#463428" d="M923.4,950.7h0.4l1.4,1.9h0v-1.8h0.5v2.7h-0.4l-1.4-1.9h0v1.8h-0.5V950.7z"/>
			<path fill="#463428" d="M927.3,952.9l-0.2,0.6h-0.5l1-2.7h0.4l1,2.7h-0.6l-0.2-0.6H927.3z M927.8,951.5L927.8,951.5l-0.3,1h0.6
				L927.8,951.5z"/>
			<path fill="#463428" d="M930.4,953h0.7v0.5h-1.3v-2.7h0.5V953L930.4,953z"/>
			<path fill="#463428" d="M935.2,951.8v-1h0.5v2.7h-0.5v-1.2h-1v1.2h-0.5v-2.7h0.5v1H935.2z"/>
			<path fill="#463428" d="M938,953.5c-0.8,0-1.3-0.6-1.3-1.4c0-0.8,0.5-1.4,1.3-1.4c0.8,0,1.3,0.6,1.3,1.4
				C939.3,952.9,938.8,953.5,938,953.5z M938,951.2c-0.5,0-0.8,0.4-0.8,0.9c0,0.4,0.2,0.9,0.8,0.9s0.8-0.5,0.8-0.9
				C938.8,951.6,938.5,951.2,938,951.2z"/>
			<path fill="#463428" d="M940.8,953h0.7v0.5h-1.3v-2.7h0.5V953z"/>
			<path fill="#463428" d="M942.4,950.8h0.7c0.8,0,1.3,0.6,1.3,1.3c0,0.7-0.5,1.3-1.3,1.3h-0.7V950.8z M942.9,953L942.9,953
				c0.7,0,1-0.4,1-0.9c0-0.6-0.3-0.9-0.9-0.9h-0.1V953z"/>
			<path fill="#463428" d="M945.9,953.4h-0.5v-2.7h0.5V953.4z"/>
			<path fill="#463428" d="M947,950.7h0.4l1.4,1.9h0v-1.8h0.5v2.7h-0.4l-1.4-1.9h0v1.8H947V950.7z"/>
			<path fill="#463428" d="M952.7,952L952.7,952c0,0.8-0.4,1.5-1.2,1.5c-0.8,0-1.3-0.7-1.3-1.4c0-0.8,0.5-1.4,1.3-1.4
				c0.5,0,0.8,0.2,1.1,0.6l-0.5,0.2c-0.1-0.2-0.3-0.4-0.6-0.4c-0.5,0-0.7,0.5-0.7,1c0,0.4,0.3,0.9,0.8,0.9c0.3,0,0.6-0.3,0.6-0.6
				h-0.6V952L952.7,952L952.7,952z"/>
		</g>
	</g>
</g>
</svg>
