<?xml version="1.0" encoding="utf-8"?>
<!-- Generator: Adobe Illustrator 18.1.1, SVG Export Plug-In . SVG Version: 6.00 Build 0)  -->
<svg version="1.1"
	 id="svg2" xmlns:dc="http://purl.org/dc/elements/1.1/" xmlns:cc="http://creativecommons.org/ns#" xmlns:rdf="http://www.w3.org/1999/02/22-rdf-syntax-ns#" xmlns:svg="http://www.w3.org/2000/svg"
	 xmlns="http://www.w3.org/2000/svg" xmlns:xlink="http://www.w3.org/1999/xlink" x="0px" y="0px" viewBox="-678 206.8 561.3 669.2"
	 enable-background="new -678 206.8 561.3 669.2" xml:space="preserve">
<g id="g14">
	<g id="g20" transform="translate(65.147,104.5847)">
		<path id="path22" fill="#FFFFFF" d="M-656.3,632h-5c-0.9,0-1.4-0.4-1.4-1.4v-48.4c0-0.9,0.4-1.3,1.4-1.3h24.9
			c0.9,0,1.4,0.4,1.4,1.3v4.1c0,0.9-0.5,1.4-1.4,1.4H-654c-0.6,0-1,0.3-1,0.8v15c0,0.6,0.3,0.9,1,0.9h15.3c1,0,1.4,0.5,1.4,1.4v4
			c0,1-0.5,1.4-1.4,1.4H-654c-0.6,0-1,0.3-1,0.8v18.7C-654.9,631.5-655.4,632-656.3,632"/>
	</g>
	<g id="g24" transform="translate(119.6675,104.5847)">
		<path id="path26" fill="#FFFFFF" d="M-638.1,632h-25.7c-0.9,0-1.4-0.4-1.4-1.4v-48.4c0-0.9,0.5-1.3,1.4-1.3h5
			c0.9,0,1.4,0.4,1.4,1.3v42c0,0.5,0.3,0.8,1,0.8h18.4c0.9,0,1.4,0.5,1.4,1.4v4.1C-636.8,631.5-637.2,632-638.1,632"/>
	</g>
	<g id="g28" transform="translate(149.9375,137.1785)">
		<path id="path30" fill="#FFFFFF" d="M-628,555.9l-7,25.4h14.4l-7.1-25.4H-628z M-641.1,599.4h-5.7c-0.7,0-1-0.4-0.8-1.4l13.8-48.4
			c0.3-0.9,0.9-1.4,1.9-1.4h7.9c1.1,0,1.7,0.5,1.9,1.4l13.8,48.4c0.2,0.9-0.1,1.4-0.9,1.4h-5.6c-0.5,0-0.8-0.1-1-0.3
			c-0.2-0.2-0.3-0.5-0.4-1.1l-3-10.3h-17.5l-3,10.3C-639.8,598.9-640.3,599.4-641.1,599.4"/>
	</g>
	<g id="g32" transform="translate(193.1367,104.5847)">
		<path id="path34" fill="#FFFFFF" d="M-613.6,632h-5c-1,0-1.4-0.4-1.4-1.4v-42.2c0-0.5-0.3-0.8-0.8-0.8h-10c-1,0-1.4-0.4-1.4-1.4
			v-4.1c0-0.9,0.5-1.3,1.4-1.3h29.5c1,0,1.4,0.4,1.4,1.3v4.1c0,0.9-0.5,1.4-1.4,1.4h-10c-0.6,0-0.9,0.3-0.9,0.8v42.2
			C-612.3,631.5-612.7,632-613.6,632"/>
	</g>
	<g id="g36" transform="translate(226.5044,141.8855)">
		<path id="path38" fill="#FFFFFF" d="M-602.5,544.9v48.4c0,0.9-0.5,1.4-1.4,1.4h-5c-0.9,0-1.4-0.4-1.4-1.4v-48.4
			c0-0.9,0.4-1.4,1.4-1.4h5C-602.9,543.6-602.5,544-602.5,544.9"/>
	</g>
	<g id="g40" transform="translate(253.8535,124.0691)">
		<path id="path42" fill="#FFFFFF" d="M-593.4,586.5h10.1c3.9,0,5.9-1.9,5.9-5.8V574c0-3.9-2-5.9-5.9-5.9h-10.1
			c-0.6,0-0.9,0.3-0.9,0.8v16.8C-594.3,586.2-594,586.5-593.4,586.5 M-595.6,612.5h-5c-0.9,0-1.4-0.4-1.4-1.3v-48.4
			c0-0.9,0.5-1.4,1.4-1.4h18.6c3.9,0,6.9,1.1,9.1,3.3c2.2,2.2,3.3,5.2,3.3,9.1v6.7c0,6.1-2.5,9.9-7.5,11.5v0.3l8.8,18.6
			c0.6,1.1,0.2,1.6-1,1.6h-4.9c-1.3,0-2.1-0.4-2.5-1.3l-8.5-18.3h-8c-0.6,0-1,0.3-1,0.8v17.5C-594.3,612-594.7,612.5-595.6,612.5"/>
	</g>
	<g id="g44" transform="translate(301.1045,109.6492)">
		<path id="path46" fill="#FFFFFF" d="M-577.6,620.2h6.9c3.9,0,5.8-2,5.8-5.9v-25.8c0-3.9-1.9-5.9-5.8-5.9h-6.9
			c-3.8,0-5.7,2-5.7,5.9v25.8C-583.4,618.2-581.4,620.2-577.6,620.2 M-569.5,626.9h-9.2c-3.9,0-7-1.1-9.1-3.3
			c-2.1-2.2-3.2-5.2-3.2-9.1v-26.5c0-3.9,1.1-7,3.2-9.1c2.1-2.1,5.2-3.2,9.1-3.2h9.2c3.9,0,7,1.1,9.1,3.2c2.2,2.1,3.3,5.2,3.3,9.1
			v26.5c0,3.9-1.1,6.9-3.3,9.1C-562.6,625.8-565.6,626.9-569.5,626.9"/>
	</g>
	<g id="g48" transform="translate(341.146,104.5847)">
		<path id="path50" fill="#FFFFFF" d="M-564.3,632h-4.9c-0.9,0-1.4-0.4-1.4-1.4v-48.4c0-0.9,0.5-1.3,1.4-1.3h4.4
			c0.8,0,1.4,0.3,1.7,0.9l19.2,34.6h0.3v-34.1c0-0.9,0.5-1.3,1.4-1.3h4.9c0.9,0,1.4,0.4,1.4,1.3v48.4c0,0.9-0.5,1.4-1.4,1.4h-4.3
			c-0.8,0-1.5-0.4-2.1-1.3l-19.1-34.2h-0.3v34.1C-562.9,631.5-563.4,632-564.3,632"/>
	</g>
	<g id="g52" transform="translate(129.2095,71.49)">
		<path id="path54" fill="#FFFFFF" d="M-634.9,709.2h1.7c2.1,0,4.2-0.6,4.2-3.2c0-2.5-2.6-3-4.6-3h-1.4V709.2z M-634.9,701.2h0.6
			c2.1,0,3.9-0.4,3.9-3c0-2.5-1.7-2.9-3.8-2.9h-0.6V701.2z M-637.2,693.2h2.2c3.4,0,6.6,0.9,6.6,4.9c0,1.3-0.7,2.8-1.9,3.4v0
			c2.1,0.4,3.6,2.5,3.6,4.5c0,3.6-3.1,5-6.2,5h-4.2V693.2z"/>
	</g>
	<g id="g56" transform="translate(141.3951,83.448)">
		<path id="path58" fill="#FFFFFF" d="M-630.9,681.3h2.6l4.4,7.7l4.4-7.7h2.6l-5.9,10.1v7.8h-2.2v-7.8L-630.9,681.3z"/>
	</g>
	<g id="g60" transform="translate(171.5855,78.8787)">
		<path id="path62" fill="#FFFFFF" d="M-620.8,691.9L-620.8,691.9l-2.1,11.9h-2.3l3.7-18.7l6.2,14.1l6.2-14.1l3.7,18.7h-2.3
			l-2.1-11.9h0l-5.4,12.2L-620.8,691.9z"/>
	</g>
	<g id="g64" transform="translate(191.0889,83.448)">
		<path id="path66" fill="#FFFFFF" d="M-614.3,681.3h9.6v2h-7.4v5h7.2v2h-7.2v6.8h7.4v2h-9.6V681.3z"/>
	</g>
	<g id="g68" transform="translate(208.3951,77.0759)">
		<path id="path70" fill="#FFFFFF" d="M-608.5,696.2h0.7c2.3,0,4.8-0.4,4.8-3.3c0-2.8-2.7-3.2-4.9-3.2h-0.6V696.2z M-599.6,705.6
			h-2.7l-5.3-7.6h-0.9v7.6h-2.2v-17.9h2.7c1.6,0,3.3,0,4.7,0.8c1.5,0.9,2.4,2.6,2.4,4.3c0,2.6-1.7,4.7-4.3,5L-599.6,705.6z"/>
	</g>
	<path id="path72" fill="#FFFFFF" d="M-377.8,782.7h-2.2v-17.9h2.2V782.7z"/>
	<g id="g74" transform="translate(234.9009,71.5261)">
		<path id="path76" fill="#FFFFFF" d="M-599.7,709.1h0.8c4.6,0,8.5-1.7,8.5-6.9c0-5.2-4-6.9-8.5-6.9h-0.8V709.1z M-601.9,693.2h3.7
			c5.5,0,10.1,2.9,10.1,8.9c0,6.1-4.5,9.1-10.1,9.1h-3.6V693.2z"/>
	</g>
	<path id="path78" fill="#FFFFFF" d="M-339.4,782.7h-2.2v-17.9h2.2V782.7z"/>
	<g id="g80" transform="translate(268.7735,80.3425)">
		<path id="path82" fill="#FFFFFF" d="M-588.4,688.5l-3.2,7.3h6.4L-588.4,688.5z M-592.5,697.8l-2,4.5h-2.4l8.6-18.7l8.6,18.7h-2.4
			l-2-4.5H-592.5z"/>
	</g>
	<g id="g84" transform="translate(283.6192,84.0906)">
		<path id="path86" fill="#FFFFFF" d="M-583.5,679.8l13.5,14.1v-13.3h2.2v18.7l-13.5-14.1v13.4h-2.2V679.8z"/>
	</g>
	<path id="path88" fill="#FFFFFF" d="M-525.2,775.5h-75.4v-2.7h75.4V775.5z"/>
	<path id="path90" fill="#FFFFFF" d="M-191.4,775.5h-75.4v-2.7h75.4V775.5z"/>
	<path id="path92" fill="#FFFFFF" d="M-505.1,804.6h-2.1v-10.8h2.1V804.6z"/>
	<g id="g94" transform="translate(132.9893,61.8708)">
		<path id="path96" fill="#FFFFFF" d="M-633.7,731.6h1.5l5.7,7.6h0v-7.3h2.1v11h-1.5l-5.7-7.6h0v7.3h-2.1V731.6z"/>
	</g>
	<g id="g98" transform="translate(145.9234,53.5525)">
		<path id="path100" fill="#FFFFFF" d="M-629.4,751h-2.1v-9h-2.2v-1.8h6.5v1.8h-2.2V751z"/>
	</g>
	<g id="g102" transform="translate(151.8623,60.28)">
		<path id="path104" fill="#FFFFFF" d="M-627.4,735.3v2.4h3.4v1.8h-3.4v2.9h3.5v1.8h-5.6v-10.8h5.6v1.8H-627.4z"/>
	</g>
	<g id="g106" transform="translate(159.2525,57.9265)">
		<path id="path108" fill="#FFFFFF" d="M-624.9,740.8h0.3c1.2,0,2-0.3,2-1.7c0-1.3-0.8-1.6-2-1.6h-0.3V740.8z M-619.7,746.7h-2.6
			l-2.6-4.4h0v4.4h-2.1v-10.8h2.9c2.1,0,3.6,0.9,3.6,3.3c0,1.4-0.8,2.8-2.2,3L-619.7,746.7z"/>
	</g>
	<g id="g110" transform="translate(165.815,61.8708)">
		<path id="path112" fill="#FFFFFF" d="M-622.7,731.6h1.5l5.7,7.6h0v-7.3h2.1v11h-1.5l-5.7-7.6h0v7.3h-2.1V731.6z"/>
	</g>
	<g id="g114" transform="translate(179.1358,59.4949)">
		<path id="path116" fill="#FFFFFF" d="M-618.3,737.2L-618.3,737.2l-1.2,3.9h2.6L-618.3,737.2z M-620.1,742.8l-0.9,2.3h-2.2
			l4.2-11.1h1.6l4.1,11.1h-2.3l-0.8-2.3H-620.1z"/>
	</g>
	<g id="g118" transform="translate(187.2993,53.5525)">
		<path id="path120" fill="#FFFFFF" d="M-615.6,751h-2.1v-9h-2.2v-1.8h6.5v1.8h-2.2V751z"/>
	</g>
	<path id="path122" fill="#FFFFFF" d="M-420.3,804.6h-2.1v-10.8h2.1V804.6z"/>
	<g id="g124" transform="translate(200.1568,60.3123)">
		<path id="path126" fill="#FFFFFF" d="M-611.3,735.3c-2,0-3.2,1.8-3.2,3.5c0,1.7,0.8,3.7,3.2,3.7c2.3,0,3.2-2,3.2-3.7
			C-608.1,737-609.3,735.3-611.3,735.3 M-611.3,744.6c-3.3,0-5.3-2.5-5.3-5.7c0-3.2,2.1-5.7,5.3-5.7s5.3,2.5,5.3,5.7
			C-605.9,742-608,744.6-611.3,744.6"/>
	</g>
	<g id="g128" transform="translate(207.083,61.8708)">
		<path id="path130" fill="#FFFFFF" d="M-609,731.6h1.5l5.7,7.6h0v-7.3h2.1v11h-1.5l-5.7-7.6h0v7.3h-2.1V731.6z"/>
	</g>
	<g id="g132" transform="translate(220.4038,59.4949)">
		<path id="path134" fill="#FFFFFF" d="M-604.5,737.2L-604.5,737.2l-1.2,3.9h2.6L-604.5,737.2z M-606.4,742.8l-0.9,2.3h-2.2
			l4.2-11.1h1.6l4.1,11.1h-2.2l-0.8-2.3H-606.4z"/>
	</g>
	<g id="g136" transform="translate(228.3731,54.9275)">
		<path id="path138" fill="#FFFFFF" d="M-601.9,747.8h3v1.8h-5.1v-10.8h2.1V747.8z"/>
	</g>
	<g id="g140" transform="translate(243.0152,58.4636)">
		<path id="path142" fill="#FFFFFF" d="M-597,739.6v-4.3h2.1v10.8h-2.1v-4.8h-3.9v4.8h-2.1v-10.8h2.1v4.3H-597z"/>
	</g>
	<g id="g144" transform="translate(251.5225,60.3123)">
		<path id="path146" fill="#FFFFFF" d="M-594.2,735.3c-2,0-3.2,1.8-3.2,3.5c0,1.7,0.8,3.7,3.2,3.7c2.3,0,3.2-2,3.2-3.7
			C-591,737-592.2,735.3-594.2,735.3 M-594.2,744.6c-3.3,0-5.3-2.5-5.3-5.7c0-3.2,2.1-5.7,5.3-5.7c3.2,0,5.3,2.5,5.3,5.7
			C-588.8,742-590.9,744.6-594.2,744.6"/>
	</g>
	<g id="g148" transform="translate(260.0279,54.9275)">
		<path id="path150" fill="#FFFFFF" d="M-591.3,747.8h3v1.8h-5.1v-10.8h2.1V747.8z"/>
	</g>
	<g id="g152" transform="translate(266.4942,54.9275)">
		<path id="path154" fill="#FFFFFF" d="M-589.2,747.8h0.3c2.6,0,3.6-1.4,3.6-3.6c0-2.3-1.2-3.6-3.6-3.6h-0.3V747.8z M-591.3,738.9h3
			c3.1,0,5.2,2.3,5.2,5.4c0,3-2.1,5.4-5.2,5.4h-3V738.9z"/>
	</g>
	<path id="path156" fill="#FFFFFF" d="M-310.6,804.6h-2.1v-10.8h2.1V804.6z"/>
	<g id="g158" transform="translate(278.878,61.8708)">
		<path id="path160" fill="#FFFFFF" d="M-585,731.6h1.5l5.7,7.6h0v-7.3h2.1v11h-1.5l-5.7-7.6h0v7.3h-2.1V731.6z"/>
	</g>
	<g id="g162" transform="translate(296.3374,57.8621)">
		<path id="path164" fill="#FFFFFF" d="M-579.2,741v0.3c0,3.1-1.6,5.8-4.9,5.8c-3.2,0-5.1-2.7-5.1-5.6c0-3.1,2-5.7,5.3-5.7
			c1.8,0,3.4,0.9,4.3,2.6l-1.9,1c-0.4-1-1.3-1.7-2.5-1.7c-2,0-3,2.1-3,3.9s1,3.8,3.1,3.8c1.3,0,2.4-1.1,2.5-2.5h-2.3V741H-579.2z"/>
	</g>
	<g id="g166" transform="translate(203.9629,242.3982)">
		<path id="path168" fill="#FFFFFF" d="M-610,310.4v-2.3l57.8-6.2l0,2.6l12.9,2.2l0,2l-13-1.5L-610,310.4z"/>
	</g>
	<g id="g170" transform="translate(182.5469,344.2297)">
		<path id="path172" fill="#FFFFFF" d="M-617.2,72.8v-2.5l86.4-35.2l0,2.6l15.6,14.5l0,2.8l-15.6-13.5L-617.2,72.8z"/>
	</g>
	<g id="g174" transform="translate(166.1792,334.6169)">
		<path id="path176" fill="#FFFFFF" d="M-622.6,95.2v-2.3l21.8-11.5l0,3.7L-622.6,95.2z"/>
	</g>
	<g id="g178" transform="translate(166.2056,343.8601)">
		<path id="path180" fill="#FFFFFF" d="M-622.6,73.7l0-2.3l34.4-17.5l73.8-33.7l0,2.8l11.9,11.2l0,2.9l-11.9-10.5L-588,55.9
			L-622.6,73.7z"/>
	</g>
	<g id="g182" transform="translate(166.1792,363.7068)">
		<path id="path184" fill="#FFFFFF" d="M-622.6,27.4v-2.4l34.9-21.5l74.8-36.1l10.4,14.1l0,3.3l-10.9-12.3l-74.1,33.5L-622.6,27.4z"
			/>
	</g>
	<g id="g186" transform="translate(166.1792,382.9626)">
		<path id="path188" fill="#FFFFFF" d="M-622.6-17.6v-2.6l21.8-16.5v4L-622.6-17.6z"/>
	</g>
	<g id="g190" transform="translate(182.5469,389.2683)">
		<path id="path192" fill="#FFFFFF" d="M-617.2-32.3v-2.4l12.1-8l75.8-40.9l10.3,15.4l-0.1,3.6l-10.9-13.7L-604.2-41L-617.2-32.3z"
			/>
	</g>
	<g id="g194" transform="translate(167.2696,398.176)">
		<path id="path196" fill="#FFFFFF" d="M-622.2-53.1l0-2.8l108.3-76l13.9,25.1l0,5l-14.4-20.9L-622.2-53.1z"/>
	</g>
	<g id="g198" transform="translate(247.3526,205.782)">
		<path id="path200" fill="#FFFFFF" d="M-595.5,395.8l-115.3-5.1v1.8l115.3,7.2l16.9-3.3l0-1.6l-16.9,2.6L-595.5,395.8z"/>
	</g>
	<g id="g202" transform="translate(247.3057,194.9871)">
		<path id="path204" fill="#FFFFFF" d="M-595.6,421l-115.3-8.2v1.8l115.4,10.4l16.8-4.4l0-1.6l-17,3.6L-595.6,421z"/>
	</g>
	<g id="g206" transform="translate(247.3526,200.4421)">
		<path id="path208" fill="#FFFFFF" d="M-595.5,408.3l-115.3-6.6v1.8l115.3,8.8l16.9-3.8l0-1.6l-16.9,3.2L-595.5,408.3z"/>
	</g>
	<g id="g210" transform="translate(247.3413,177.6042)">
		<path id="path212" fill="#FFFFFF" d="M-595.6,461.6l-115.3-13.4v2.3l115.3,15l16.9-5.5v-1.3l-16.9,4.4L-595.6,461.6z"/>
	</g>
	<g id="g214" transform="translate(247.3526,211.615)">
		<path id="path216" fill="#FFFFFF" d="M-595.5,382.2l-115.3-3v1.8l115.3,5.5l16.9-2.6l0-1.6l-16.9,1.7L-595.5,382.2z"/>
	</g>
	<g id="g218" transform="translate(247.3658,222.9529)">
		<path id="path220" fill="#FFFFFF" d="M-595.5,355.8l-115.3,0.8v1.8l115.3,1.6l16.9-0.7l0-1.6l-16.9-0.1L-595.5,355.8z"/>
	</g>
	<g id="g222" transform="translate(247.3604,228.9226)">
		<path id="path224" fill="#FFFFFF" d="M-595.5,341.8l-115.3,3.2v1.8l115.3-0.7l16.9,0.2l0-1.6l-16.9-1.2L-595.5,341.8z"/>
	</g>
	<g id="g226" transform="translate(247.3721,217.4255)">
		<path id="path228" fill="#FFFFFF" d="M-595.5,368.7l-115.4-0.9v1.8l115.3,3.2l16.9-1.3l0-1.6l-16.9,0.6L-595.5,368.7z"/>
	</g>
	<g id="g230" transform="translate(247.3404,233.8816)">
		<path id="path232" fill="#FFFFFF" d="M-595.6,330.3l0-1.9l-115.3,6v1.8l115.3-3.3l16.9,2.4l0-1.6L-595.6,330.3z"/>
	</g>
	<g id="g234" transform="translate(247.3545,290.239)">
		<path id="path236" fill="#FFFFFF" d="M-595.5,198.8l-86.4,17l0-1.9l-28.8,6.5v2l115-17.8l17,6.2l0-1.8l-16.8-8.1L-595.5,198.8z"/>
	</g>
	<g id="g238" transform="translate(247.3418,262.7737)">
		<path id="path240" fill="#FFFFFF" d="M-595.6,262.9l-86.4,11l0-2.3l-28.8,5v2l115.2-9.9l16.8,3.4l0-1.7l-16.8-4.9L-595.6,262.9z"
			/>
	</g>
	<g id="g242" transform="translate(247.3199,276.3708)">
		<path id="path244" fill="#FFFFFF" d="M-595.6,231.1l-86.4,13.8l0-2.2l-28.8,5.9v2l115-13.7l17,4.6l0-1.7l-16.8-6.5L-595.6,231.1z"
			/>
	</g>
	<g id="g246" transform="translate(247.3194,304.4641)">
		<path id="path248" fill="#FFFFFF" d="M-595.6,165.6l-86.4,20.5l0-2.1l-28.8,7.8v2.1l115.1-22l16.9,7.7l0-1.9l-16.8-9.7
			L-595.6,165.6z"/>
	</g>
	<g id="g250" transform="translate(247.3316,357.8074)">
		<path id="path252" fill="#FFFFFF" d="M-595.6,41.1l0-2.1l-86.4,32.7l0-1.9l-28.8,11.5v2.1l115.2-37.9l16.6,13l0.2-0.1l0-2.1
			L-595.6,41.1z"/>
	</g>
	<g id="g254" transform="translate(247.314,345.7483)">
		<path id="path256" fill="#FFFFFF" d="M-595.6,69.3l-86.4,29.7l0-2l-28.8,10.6v2.1l115.2-33.7l16.7,11.6l0.1-0.1l0-2.1l-16.8-13.8
			L-595.6,69.3z"/>
	</g>
	<g id="g258" transform="translate(247.2788,331.8899)">
		<path id="path260" fill="#FFFFFF" d="M-595.6,101.6l-86.3,26.5l0-2.3l-28.8,9.9v2.1l115-29.9l16.9,10.4l0.1,0l0-2l-16.8-12.5
			L-595.6,101.6z"/>
	</g>
	<g id="g262" transform="translate(247.3199,318.0632)">
		<path id="path264" fill="#FFFFFF" d="M-595.6,133.9l-86.3,23.5l0-2.2l-28.8,8.7v2.1l115-25.8l16.9,9.1l0-2l-16.8-11.2V133.9z"/>
	</g>
</g>
</svg>
