<?xml version="1.0" encoding="UTF-8" standalone="no"?>
<svg
   xmlns:dc="http://purl.org/dc/elements/1.1/"
   xmlns:cc="http://creativecommons.org/ns#"
   xmlns:rdf="http://www.w3.org/1999/02/22-rdf-syntax-ns#"
   xmlns:svg="http://www.w3.org/2000/svg"
   xmlns="http://www.w3.org/2000/svg"
   viewBox="0 0 561.26001 669.19867"
   height="669.19867"
   width="561.26001"
   xml:space="preserve"
   id="svg2"
   version="1.1"><metadata
     id="metadata8"><rdf:RDF><cc:Work
         rdf:about=""><dc:format>image/svg+xml</dc:format><dc:type
           rdf:resource="http://purl.org/dc/dcmitype/StillImage" /></cc:Work></rdf:RDF></metadata><defs
     id="defs6"><clipPath
       id="clipPath18"
       clipPathUnits="userSpaceOnUse"><path
         id="path16"
         d="M 0,501.899 H 420.945 V 0 H 0 Z" /></clipPath></defs><g
     transform="matrix(1.3333333,0,0,-1.3333333,0,669.19867)"
     id="g10"><g
       id="g12"><g
         clip-path="url(#clipPath18)"
         id="g14"><g
           transform="translate(65.147,104.5847)"
           id="g20"><path
             id="path22"
             style="fill:#231f20;fill-opacity:1;fill-rule:nonzero;stroke:none"
             d="M 0,0 H -3.754 C -4.43,0 -4.767,0.337 -4.767,1.013 v 36.288 c 0,0.675 0.337,1.012 1.013,1.012 h 18.71 c 0.675,0 1.013,-0.337 1.013,-1.012 v -3.039 c 0,-0.676 -0.338,-1.013 -1.013,-1.013 H 1.728 c -0.477,0 -0.715,-0.199 -0.715,-0.596 V 21.392 c 0,-0.438 0.238,-0.656 0.715,-0.656 h 11.5 c 0.715,0 1.073,-0.338 1.073,-1.013 v -2.979 c 0,-0.716 -0.358,-1.073 -1.073,-1.073 h -11.5 c -0.477,0 -0.715,-0.199 -0.715,-0.596 V 1.013 C 1.013,0.337 0.675,0 0,0" /></g><g
           transform="translate(119.6675,104.5847)"
           id="g24"><path
             id="path26"
             style="fill:#231f20;fill-opacity:1;fill-rule:nonzero;stroke:none"
             d="m 0,0 h -19.306 c -0.675,0 -1.013,0.337 -1.013,1.013 v 36.288 c 0,0.675 0.338,1.012 1.013,1.012 h 3.754 c 0.675,0 1.013,-0.337 1.013,-1.012 V 5.78 c 0,-0.398 0.239,-0.596 0.715,-0.596 L 0,5.184 c 0.675,0 1.013,-0.358 1.013,-1.073 V 1.013 C 1.013,0.337 0.675,0 0,0" /></g><g
           transform="translate(149.9375,137.1785)"
           id="g28"><path
             id="path30"
             style="fill:#231f20;fill-opacity:1;fill-rule:nonzero;stroke:none"
             d="M 0,0 -5.244,-19.067 H 5.542 L 0.238,0 Z m -9.772,-32.594 h -4.291 c -0.556,0 -0.754,0.337 -0.595,1.013 L -4.291,4.707 c 0.199,0.675 0.676,1.013 1.431,1.013 h 5.958 c 0.795,0 1.271,-0.338 1.43,-1.013 l 10.368,-36.288 c 0.159,-0.676 -0.059,-1.013 -0.655,-1.013 H 10.01 c -0.357,0 -0.606,0.07 -0.744,0.209 -0.14,0.139 -0.249,0.406 -0.328,0.804 l -2.265,7.746 H -6.436 L -8.7,-31.581 c -0.159,-0.676 -0.516,-1.013 -1.072,-1.013" /></g><g
           transform="translate(193.1367,104.5847)"
           id="g32"><path
             id="path34"
             style="fill:#231f20;fill-opacity:1;fill-rule:nonzero;stroke:none"
             d="m 0,0 h -3.754 c -0.715,0 -1.073,0.337 -1.073,1.013 v 31.64 c 0,0.397 -0.199,0.596 -0.595,0.596 h -7.508 c -0.715,0 -1.073,0.337 -1.073,1.013 v 3.039 c 0,0.675 0.358,1.012 1.073,1.012 H 9.176 c 0.715,0 1.073,-0.337 1.073,-1.012 v -3.039 c 0,-0.676 -0.358,-1.013 -1.073,-1.013 H 1.668 c -0.437,0 -0.655,-0.199 -0.655,-0.596 V 1.013 C 1.013,0.337 0.675,0 0,0" /></g><g
           transform="translate(226.5044,141.8855)"
           id="g36"><path
             id="path38"
             style="fill:#231f20;fill-opacity:1;fill-rule:nonzero;stroke:none"
             d="m 0,0 v -36.288 c 0,-0.676 -0.338,-1.013 -1.013,-1.013 h -3.754 c -0.676,0 -1.013,0.337 -1.013,1.013 L -5.78,0 c 0,0.675 0.337,1.013 1.013,1.013 h 3.754 C -0.338,1.013 0,0.675 0,0" /></g><g
           transform="translate(253.8535,124.0691)"
           id="g40"><path
             id="path42"
             style="fill:#231f20;fill-opacity:1;fill-rule:nonzero;stroke:none"
             d="m 0,0 h 7.567 c 2.94,0 4.41,1.45 4.41,4.35 v 5.005 c 0,2.94 -1.47,4.41 -4.41,4.41 H 0 c -0.437,0 -0.656,-0.2 -0.656,-0.596 V 0.596 C -0.656,0.198 -0.437,0 0,0 m -1.668,-19.484 h -3.754 c -0.676,0 -1.014,0.337 -1.014,1.012 v 36.288 c 0,0.675 0.338,1.013 1.014,1.013 H 8.521 c 2.899,0 5.173,-0.824 6.822,-2.473 1.648,-1.648 2.473,-3.922 2.473,-6.822 V 4.528 c 0,-4.568 -1.887,-7.448 -5.661,-8.639 V -4.35 l 6.615,-13.943 c 0.436,-0.795 0.178,-1.191 -0.775,-1.191 h -3.694 c -0.954,0 -1.57,0.337 -1.847,1.012 L 6.078,-4.767 H 0.06 c -0.477,0 -0.716,-0.199 -0.716,-0.595 v -13.11 c 0,-0.675 -0.338,-1.012 -1.012,-1.012" /></g><g
           transform="translate(301.1045,109.6492)"
           id="g44"><path
             id="path46"
             style="fill:#231f20;fill-opacity:1;fill-rule:nonzero;stroke:none"
             d="m 0,0 h 5.184 c 2.899,0 4.35,1.47 4.35,4.41 v 19.365 c 0,2.94 -1.451,4.41 -4.35,4.41 H 0 c -2.86,0 -4.29,-1.47 -4.29,-4.41 V 4.41 C -4.29,1.47 -2.86,0 0,0 m 6.078,-5.064 h -6.912 c -2.94,0 -5.214,0.813 -6.823,2.443 -1.609,1.628 -2.413,3.892 -2.413,6.792 v 19.843 c 0,2.939 0.804,5.214 2.413,6.822 1.609,1.609 3.883,2.413 6.823,2.413 h 6.912 c 2.939,0 5.223,-0.804 6.852,-2.413 1.629,-1.608 2.444,-3.883 2.444,-6.822 V 4.171 c 0,-2.9 -0.815,-5.164 -2.444,-6.792 -1.629,-1.63 -3.913,-2.443 -6.852,-2.443" /></g><g
           transform="translate(341.146,104.5847)"
           id="g48"><path
             id="path50"
             style="fill:#231f20;fill-opacity:1;fill-rule:nonzero;stroke:none"
             d="M 0,0 H -3.694 C -4.37,0 -4.708,0.337 -4.708,1.013 v 36.288 c 0,0.675 0.338,1.012 1.014,1.012 h 3.337 c 0.634,0 1.072,-0.218 1.31,-0.655 l 14.42,-25.92 h 0.238 v 25.563 c 0,0.675 0.338,1.012 1.014,1.012 h 3.694 c 0.675,0 1.013,-0.337 1.013,-1.012 V 1.013 C 21.332,0.337 20.994,0 20.319,0 H 17.101 C 16.465,0 15.949,0.317 15.552,0.953 L 1.251,26.575 H 1.013 V 1.013 C 1.013,0.337 0.675,0 0,0" /></g><g
           transform="translate(129.2095,71.49)"
           id="g52"><path
             id="path54"
             style="fill:#817240;fill-opacity:1;fill-rule:nonzero;stroke:none"
             d="m 0,0 h 1.285 c 1.553,0 3.177,0.464 3.177,2.374 0,1.892 -1.928,2.284 -3.426,2.284 L 0,4.658 Z m 0,5.996 h 0.429 c 1.588,0 2.891,0.322 2.891,2.25 0,1.892 -1.285,2.212 -2.856,2.212 H 0 Z m -1.677,5.962 h 1.641 c 2.535,0 4.927,-0.66 4.927,-3.694 C 4.891,7.282 4.354,6.14 3.445,5.712 V 5.675 C 5.033,5.391 6.14,3.837 6.14,2.267 6.14,-0.429 3.837,-1.499 1.463,-1.499 h -3.14 z" /></g><g
           transform="translate(141.3951,83.448)"
           id="g56"><path
             id="path58"
             style="fill:#817240;fill-opacity:1;fill-rule:nonzero;stroke:none"
             d="M 0,0 H 1.928 L 5.229,-5.747 8.531,0 h 1.927 l -4.39,-7.604 v -5.853 H 4.391 v 5.853 z" /></g><g
           transform="translate(171.5855,78.8787)"
           id="g60"><path
             id="path62"
             style="fill:#817240;fill-opacity:1;fill-rule:nonzero;stroke:none"
             d="M 0,0 H -0.035 L -1.606,-8.888 H -3.337 L -0.589,5.141 4.034,-5.461 8.656,5.141 11.404,-8.888 H 9.674 L 8.103,0 H 8.067 L 4.034,-9.173 Z" /></g><g
           transform="translate(191.0889,83.448)"
           id="g64"><path
             id="path66"
             style="fill:#817240;fill-opacity:1;fill-rule:nonzero;stroke:none"
             d="M 0,0 H 7.228 V -1.534 H 1.677 v -3.767 h 5.39 v -1.535 h -5.39 v -5.087 h 5.551 v -1.534 H 0 Z" /></g><g
           transform="translate(208.3951,77.0759)"
           id="g68"><path
             id="path70"
             style="fill:#817240;fill-opacity:1;fill-rule:nonzero;stroke:none"
             d="m 0,0 h 0.535 c 1.714,0 3.57,0.321 3.57,2.464 0,2.105 -1.999,2.409 -3.659,2.409 L 0,4.873 Z M 6.693,-7.085 H 4.658 L 0.696,-1.392 H 0 V -7.085 H -1.677 V 6.372 h 2.034 c 1.196,0 2.481,-0.018 3.551,-0.625 1.126,-0.66 1.767,-1.928 1.767,-3.213 0,-1.927 -1.284,-3.533 -3.23,-3.764 z" /></g><path
           id="path72"
           style="fill:#817240;fill-opacity:1;fill-rule:nonzero;stroke:none"
           d="m 225.154,69.99 h -1.677 v 13.457 h 1.677 z" /><g
           transform="translate(234.9009,71.5261)"
           id="g74"><path
             id="path76"
             style="fill:#817240;fill-opacity:1;fill-rule:nonzero;stroke:none"
             d="m 0,0 h 0.589 c 3.427,0 6.39,1.285 6.39,5.193 0,3.927 -2.963,5.194 -6.39,5.194 H 0 Z m -1.678,11.922 h 2.784 c 4.123,0 7.55,-2.178 7.55,-6.657 0,-4.587 -3.356,-6.8 -7.603,-6.8 h -2.731 z" /></g><path
           id="path78"
           style="fill:#817240;fill-opacity:1;fill-rule:nonzero;stroke:none"
           d="m 253.95,69.99 h -1.677 v 13.457 h 1.677 z" /><g
           transform="translate(268.7735,80.3425)"
           id="g80"><path
             id="path82"
             style="fill:#817240;fill-opacity:1;fill-rule:nonzero;stroke:none"
             d="m 0,0 -2.392,-5.443 h 4.784 z m -3.087,-6.979 -1.536,-3.373 H -6.425 L 0,3.677 6.425,-10.352 H 4.623 l -1.536,3.373 z" /></g><g
           transform="translate(283.6192,84.0906)"
           id="g84"><path
             id="path86"
             style="fill:#817240;fill-opacity:1;fill-rule:nonzero;stroke:none"
             d="m 0,0 10.102,-10.584 v 9.941 H 11.78 V -14.652 L 1.677,-4.069 V -14.1 H 0 Z" /></g><path
           id="path88"
           style="fill:#817240;fill-opacity:1;fill-rule:nonzero;stroke:none"
           d="M 114.597,75.386 H 58.016 v 2.053 h 56.581 z" /><path
           id="path90"
           style="fill:#817240;fill-opacity:1;fill-rule:nonzero;stroke:none"
           d="m 364.915,75.386 h -56.582 v 2.053 h 56.582 z" /><path
           id="path92"
           style="fill:#817240;fill-opacity:1;fill-rule:nonzero;stroke:none"
           d="m 129.692,53.552 h -1.58 v 8.103 h 1.58 z" /><g
           transform="translate(132.9893,61.8708)"
           id="g94"><path
             id="path96"
             style="fill:#817240;fill-opacity:1;fill-rule:nonzero;stroke:none"
             d="m 0,0 h 1.139 l 4.267,-5.664 h 0.021 v 5.448 h 1.58 V -8.479 H 5.868 L 1.602,-2.816 H 1.58 V -8.318 H 0 Z" /></g><g
           transform="translate(145.9234,53.5525)"
           id="g98"><path
             id="path100"
             style="fill:#817240;fill-opacity:1;fill-rule:nonzero;stroke:none"
             d="M 0,0 H -1.58 V 6.728 H -3.214 V 8.103 H 1.633 V 6.728 H 0 Z" /></g><g
           transform="translate(151.8623,60.28)"
           id="g102"><path
             id="path104"
             style="fill:#817240;fill-opacity:1;fill-rule:nonzero;stroke:none"
             d="M 0,0 V -1.784 H 2.515 V -3.16 H 0 V -5.353 H 2.612 V -6.728 H -1.58 V 1.375 H 2.612 V 0 Z" /></g><g
           transform="translate(159.2525,57.9265)"
           id="g106"><path
             id="path108"
             style="fill:#817240;fill-opacity:1;fill-rule:nonzero;stroke:none"
             d="m 0,0 h 0.204 c 0.871,0 1.483,0.258 1.483,1.246 0,1 -0.634,1.193 -1.472,1.193 H 0 Z M 3.901,-4.374 H 1.988 L 0.021,-1.106 H 0 v -3.268 h -1.58 v 8.103 h 2.139 c 1.601,0 2.708,-0.708 2.708,-2.44 0,-1.031 -0.569,-2.063 -1.655,-2.245 z" /></g><g
           transform="translate(165.815,61.8708)"
           id="g110"><path
             id="path112"
             style="fill:#817240;fill-opacity:1;fill-rule:nonzero;stroke:none"
             d="m 0,0 h 1.139 l 4.267,-5.664 h 0.021 v 5.448 h 1.58 V -8.479 H 5.868 L 1.602,-2.816 H 1.58 V -8.318 H 0 Z" /></g><g
           transform="translate(179.1358,59.4949)"
           id="g114"><path
             id="path116"
             style="fill:#817240;fill-opacity:1;fill-rule:nonzero;stroke:none"
             d="M 0,0 H -0.021 L -0.914,-2.944 H 1.01 Z m -1.365,-4.233 -0.666,-1.709 h -1.666 l 3.159,8.318 H 0.687 L 3.762,-5.942 H 2.074 l -0.623,1.709 z" /></g><g
           transform="translate(187.2993,53.5525)"
           id="g118"><path
             id="path120"
             style="fill:#817240;fill-opacity:1;fill-rule:nonzero;stroke:none"
             d="M 0,0 H -1.581 V 6.728 H -3.214 V 8.103 H 1.633 V 6.728 H 0 Z" /></g><path
           id="path122"
           style="fill:#817240;fill-opacity:1;fill-rule:nonzero;stroke:none"
           d="m 193.238,53.552 h -1.58 v 8.103 h 1.58 z" /><g
           transform="translate(200.1568,60.3123)"
           id="g124"><path
             id="path126"
             style="fill:#817240;fill-opacity:1;fill-rule:nonzero;stroke:none"
             d="m 0,0 c -1.494,0 -2.375,-1.322 -2.375,-2.633 0,-1.247 0.624,-2.784 2.375,-2.784 1.752,0 2.375,1.537 2.375,2.784 C 2.375,-1.322 1.494,0 0,0 m 0,-6.976 c -2.472,0 -4.009,1.893 -4.009,4.279 0,2.407 1.591,4.256 4.009,4.256 2.418,0 4.009,-1.849 4.009,-4.256 0,-2.386 -1.537,-4.279 -4.009,-4.279" /></g><g
           transform="translate(207.083,61.8708)"
           id="g128"><path
             id="path130"
             style="fill:#817240;fill-opacity:1;fill-rule:nonzero;stroke:none"
             d="m 0,0 h 1.139 l 4.267,-5.664 h 0.021 v 5.448 H 7.008 V -8.479 H 5.868 L 1.602,-2.816 H 1.58 V -8.318 H 0 Z" /></g><g
           transform="translate(220.4038,59.4949)"
           id="g132"><path
             id="path134"
             style="fill:#817240;fill-opacity:1;fill-rule:nonzero;stroke:none"
             d="M 0,0 H -0.021 L -0.913,-2.944 H 1.01 Z m -1.365,-4.233 -0.666,-1.709 h -1.666 l 3.16,8.318 H 0.688 L 3.761,-5.942 H 2.074 l -0.623,1.709 z" /></g><g
           transform="translate(228.3731,54.9275)"
           id="g136"><path
             id="path138"
             style="fill:#817240;fill-opacity:1;fill-rule:nonzero;stroke:none"
             d="M 0,0 H 2.236 V -1.375 H -1.58 V 6.728 H 0 Z" /></g><g
           transform="translate(243.0152,58.4636)"
           id="g140"><path
             id="path142"
             style="fill:#817240;fill-opacity:1;fill-rule:nonzero;stroke:none"
             d="M 0,0 V 3.191 H 1.58 V -4.911 H 0 v 3.621 h -2.923 v -3.621 h -1.58 v 8.102 h 1.58 V 0 Z" /></g><g
           transform="translate(251.5225,60.3123)"
           id="g144"><path
             id="path146"
             style="fill:#817240;fill-opacity:1;fill-rule:nonzero;stroke:none"
             d="m 0,0 c -1.494,0 -2.375,-1.322 -2.375,-2.633 0,-1.247 0.623,-2.784 2.375,-2.784 1.751,0 2.375,1.537 2.375,2.784 C 2.375,-1.322 1.493,0 0,0 m 0,-6.976 c -2.473,0 -4.009,1.893 -4.009,4.279 0,2.407 1.59,4.256 4.009,4.256 2.418,0 4.008,-1.849 4.008,-4.256 0,-2.386 -1.537,-4.279 -4.008,-4.279" /></g><g
           transform="translate(260.0279,54.9275)"
           id="g148"><path
             id="path150"
             style="fill:#817240;fill-opacity:1;fill-rule:nonzero;stroke:none"
             d="M 0,0 H 2.236 V -1.375 H -1.579 V 6.728 H 0 Z" /></g><g
           transform="translate(266.4942,54.9275)"
           id="g152"><path
             id="path154"
             style="fill:#817240;fill-opacity:1;fill-rule:nonzero;stroke:none"
             d="m 0,0 h 0.258 c 1.945,0 2.697,1.075 2.697,2.677 0,1.761 -0.902,2.676 -2.697,2.676 H 0 Z m -1.58,6.728 h 2.257 c 2.343,0 3.912,-1.751 3.912,-4.062 0,-2.278 -1.611,-4.041 -3.922,-4.041 H -1.58 Z" /></g><path
           id="path156"
           style="fill:#817240;fill-opacity:1;fill-rule:nonzero;stroke:none"
           d="m 275.581,53.552 h -1.579 v 8.103 h 1.579 z" /><g
           transform="translate(278.878,61.8708)"
           id="g158"><path
             id="path160"
             style="fill:#817240;fill-opacity:1;fill-rule:nonzero;stroke:none"
             d="m 0,0 h 1.14 l 4.267,-5.664 h 0.021 v 5.448 H 7.007 V -8.479 H 5.868 L 1.602,-2.816 H 1.58 V -8.318 H 0 Z" /></g><g
           transform="translate(296.3374,57.8621)"
           id="g162"><path
             id="path164"
             style="fill:#817240;fill-opacity:1;fill-rule:nonzero;stroke:none"
             d="m 0,0 v -0.204 c 0,-2.29 -1.172,-4.321 -3.687,-4.321 -2.364,0 -3.858,1.999 -3.858,4.235 0,2.311 1.537,4.299 3.955,4.299 1.375,0 2.579,-0.699 3.203,-1.935 L -1.785,1.321 c -0.322,0.732 -1.01,1.29 -1.847,1.29 -1.528,0 -2.28,-1.557 -2.28,-2.901 0,-1.344 0.764,-2.838 2.29,-2.838 0.989,0 1.816,0.86 1.849,1.838 h -1.72 V 0 Z" /></g><g
           transform="translate(203.9629,242.3982)"
           id="g166"><path
             id="path168"
             style="fill:#817240;fill-opacity:1;fill-rule:nonzero;stroke:none"
             d="M 0,0 V 1.717 L 43.374,6.39 43.378,4.41 53.055,2.747 53.04,1.226 43.277,2.369 Z" /></g><g
           transform="translate(182.5469,344.2297)"
           id="g170"><path
             id="path172"
             style="fill:#817240;fill-opacity:1;fill-rule:nonzero;stroke:none"
             d="M 0,0 V 1.882 L 64.783,28.293 64.792,26.349 76.473,15.463 76.46,13.39 64.792,23.526 Z" /></g><g
           transform="translate(166.1792,334.6169)"
           id="g174"><path
             id="path176"
             style="fill:#817240;fill-opacity:1;fill-rule:nonzero;stroke:none"
             d="M 0,0 V 1.708 L 16.37,10.313 16.366,7.529 Z" /></g><g
           transform="translate(166.2056,343.8601)"
           id="g178"><path
             id="path180"
             style="fill:#817240;fill-opacity:1;fill-rule:nonzero;stroke:none"
             d="m 0,0 -0.026,1.733 25.801,13.158 55.336,25.266 0.024,-2.084 8.932,-8.372 -0.004,-2.169 -8.952,7.841 -55.152,-22.064 z" /></g><g
           transform="translate(166.1792,363.7068)"
           id="g182"><path
             id="path184"
             style="fill:#817240;fill-opacity:1;fill-rule:nonzero;stroke:none"
             d="M 0,0 V 1.824 L 26.171,17.951 82.264,45.007 90.029,34.469 90.055,31.958 81.846,41.183 26.275,16.076 Z" /></g><g
           transform="translate(166.1792,382.9626)"
           id="g186"><path
             id="path188"
             style="fill:#817240;fill-opacity:1;fill-rule:nonzero;stroke:none"
             d="M 0,0 V 1.921 L 16.368,14.313 V 11.312 Z" /></g><g
           transform="translate(182.5469,389.2683)"
           id="g190"><path
             id="path192"
             style="fill:#817240;fill-opacity:1;fill-rule:nonzero;stroke:none"
             d="M 0,0 V 1.811 L 9.106,7.829 65.935,38.479 73.683,26.947 73.643,24.273 65.484,34.579 9.742,6.519 Z" /></g><g
           transform="translate(167.2696,398.176)"
           id="g194"><path
             id="path196"
             style="fill:#817240;fill-opacity:1;fill-rule:nonzero;stroke:none"
             d="M 0,0 -0.005,2.078 81.191,59.065 91.625,40.225 91.637,36.493 80.872,52.151 Z" /></g><g
           transform="translate(247.3526,205.782)"
           id="g198"><path
             id="path200"
             style="fill:#817240;fill-opacity:1;fill-rule:nonzero;stroke:none"
             d="M 0,0 -86.495,3.848 V 2.513 l 86.481,-5.418 12.678,2.479 0.007,1.197 -12.689,-1.931 z" /></g><g
           transform="translate(247.3057,194.9871)"
           id="g202"><path
             id="path204"
             style="fill:#817240;fill-opacity:1;fill-rule:nonzero;stroke:none"
             d="M 0,0 -86.448,6.177 V 4.839 L 0.081,-2.974 12.71,0.321 12.718,1.542 -0.028,-1.123 Z" /></g><g
           transform="translate(247.3526,200.4421)"
           id="g206"><path
             id="path208"
             style="fill:#817240;fill-opacity:1;fill-rule:nonzero;stroke:none"
             d="M 0,0 -86.495,4.982 V 3.646 l 86.481,-6.602 12.678,2.849 0.007,1.205 -12.685,-2.383 z" /></g><g
           transform="translate(247.3413,177.6042)"
           id="g210"><path
             id="path212"
             style="fill:#817240;fill-opacity:1;fill-rule:nonzero;stroke:none"
             d="M 0,0 -86.483,10.031 V 8.343 L -0.002,-2.922 12.675,1.202 V 2.161 L -0.012,-1.141 Z" /></g><g
           transform="translate(247.3526,211.615)"
           id="g214"><path
             id="path216"
             style="fill:#817240;fill-opacity:1;fill-rule:nonzero;stroke:none"
             d="M 0,0 -86.495,2.22 V 0.885 l 86.481,-4.144 12.678,1.969 0.007,1.19 -12.683,-1.286 z" /></g><g
           transform="translate(247.3658,222.9529)"
           id="g218"><path
             id="path220"
             style="fill:#817240;fill-opacity:1;fill-rule:nonzero;stroke:none"
             d="m 0,0 -86.508,-0.581 v -1.333 l 86.505,-1.187 12.653,0.531 0.008,1.178 -12.66,0.084 z" /></g><g
           transform="translate(247.3604,228.9226)"
           id="g222"><path
             id="path224"
             style="fill:#817240;fill-opacity:1;fill-rule:nonzero;stroke:none"
             d="m 0,0 -86.502,-2.371 v -1.334 l 86.486,0.519 12.672,-0.168 0.008,1.181 -12.693,0.921 z" /></g><g
           transform="translate(247.3721,217.4255)"
           id="g226"><path
             id="path228"
             style="fill:#817240;fill-opacity:1;fill-rule:nonzero;stroke:none"
             d="m 0,0 -86.514,0.672 v -1.333 l 86.457,-2.41 12.701,1.008 0.008,1.178 -12.671,-0.414 z" /></g><g
           transform="translate(247.3404,233.8816)"
           id="g230"><path
             id="path232"
             style="fill:#817240;fill-opacity:1;fill-rule:nonzero;stroke:none"
             d="M 0,0 0.012,1.432 -86.482,-3.054 V -4.39 l 86.458,2.486 12.7,-1.804 0.008,1.199 z" /></g><g
           transform="translate(247.3545,290.239)"
           id="g234"><path
             id="path236"
             style="fill:#817240;fill-opacity:1;fill-rule:nonzero;stroke:none"
             d="m 0,0 -64.819,-12.739 0.01,1.438 -21.599,-4.896 v -1.526 l 86.234,13.343 12.745,-4.629 0.008,1.365 -12.587,6.067 z" /></g><g
           transform="translate(247.3418,262.7737)"
           id="g238"><path
             id="path240"
             style="fill:#817240;fill-opacity:1;fill-rule:nonzero;stroke:none"
             d="m 0,0 -64.784,-8.27 -0.023,1.689 -21.588,-3.753 v -1.513 l 86.368,7.404 12.611,-2.515 0.007,1.255 -12.596,3.668 z" /></g><g
           transform="translate(247.3199,276.3708)"
           id="g242"><path
             id="path244"
             style="fill:#817240;fill-opacity:1;fill-rule:nonzero;stroke:none"
             d="m 0,0 -64.773,-10.321 0.016,1.645 -21.616,-4.462 v -1.521 l 86.244,10.298 12.735,-3.462 0.007,1.304 -12.598,4.856 z" /></g><g
           transform="translate(247.3194,304.4641)"
           id="g246"><path
             id="path248"
             style="fill:#817240;fill-opacity:1;fill-rule:nonzero;stroke:none"
             d="m 0,0 -64.777,-15.405 -0.017,1.595 -21.579,-5.846 v -1.543 l 86.295,16.487 12.684,-5.775 0.008,1.441 -12.582,7.304 z" /></g><g
           transform="translate(247.3316,357.8074)"
           id="g250"><path
             id="path252"
             style="fill:#817240;fill-opacity:1;fill-rule:nonzero;stroke:none"
             d="m 0,0 0.007,1.564 -64.789,-24.503 0.01,1.456 -21.613,-8.634 v -1.61 l 86.392,28.423 12.465,-9.733 0.122,0.058 0.008,1.604 z" /></g><g
           transform="translate(247.314,345.7483)"
           id="g254"><path
             id="path256"
             style="fill:#817240;fill-opacity:1;fill-rule:nonzero;stroke:none"
             d="m 0,0 -64.786,-22.247 0.011,1.52 -21.592,-7.928 v -1.59 l 86.392,25.296 12.502,-8.714 0.085,0.048 0.007,1.561 -12.594,10.338 z" /></g><g
           transform="translate(247.2788,331.8899)"
           id="g258"><path
             id="path260"
             style="fill:#817240;fill-opacity:1;fill-rule:nonzero;stroke:none"
             d="m 0,0 -64.72,-19.908 0.01,1.7 -21.622,-7.43 v -1.577 l 86.264,22.444 12.672,-7.8 0.043,0.029 0.007,1.529 -12.619,9.347 z" /></g><g
           transform="translate(247.3199,318.0632)"
           id="g262"><path
             id="path264"
             style="fill:#817240;fill-opacity:1;fill-rule:nonzero;stroke:none"
             d="m 0,0 -64.761,-17.602 -0.02,1.641 -21.592,-6.533 v -1.557 L -0.096,-4.669 12.606,-11.51 12.613,-9.999 0,-1.633 Z" /></g></g></g></g></svg>