<?xml version="1.0" encoding="iso-8859-1"?>
<!-- Generator: Adobe Illustrator 18.1.1, SVG Export Plug-In . SVG Version: 6.00 Build 0)  -->
<svg version="1.1" id="Layer_1" xmlns="http://www.w3.org/2000/svg" xmlns:xlink="http://www.w3.org/1999/xlink" x="0px" y="0px"
	 viewBox="0 0 96.535 76" style="enable-background:new 0 0 96.535 76;" xml:space="preserve">
<g>
	<polygon style="fill:#FFFFFF;" points="2.526,60.743 2.499,60.743 1.31,67.47 0,67.47 2.08,56.853 5.578,64.876 9.077,56.853 
		11.157,67.47 9.847,67.47 8.658,60.743 8.631,60.743 5.578,67.686 	"/>
	<polygon style="fill:#FFFFFF;" points="17.46,57.285 22.93,57.285 22.93,58.447 18.729,58.447 18.729,61.297 22.809,61.297 
		22.809,62.459 18.729,62.459 18.729,66.308 22.93,66.308 22.93,67.47 17.46,67.47 	"/>
	<path style="fill:#FFFFFF;" d="M35.568,67.47h-1.54l-2.999-4.309h-0.527v4.309h-1.27V57.285h1.54c0.905,0,1.877,0.014,2.688,0.473
		c0.851,0.5,1.337,1.459,1.337,2.431c0,1.459-0.973,2.674-2.445,2.85L35.568,67.47z M30.503,62.107h0.405
		c1.296,0,2.701-0.243,2.701-1.864c0-1.594-1.513-1.824-2.769-1.824h-0.338V62.107z"/>
	<rect x="41.871" y="57.285" style="fill:#FFFFFF;" width="1.27" height="10.185"/>
	<path style="fill:#FFFFFF;" d="M49.443,57.285h2.107c3.12,0,5.714,1.648,5.714,5.038c0,3.472-2.539,5.146-5.754,5.146h-2.066
		V57.285z M50.713,66.308h0.446c2.594,0,4.836-0.973,4.836-3.931c0-2.971-2.242-3.93-4.836-3.93h-0.446V66.308z"/>
	<rect x="63.566" y="57.285" style="fill:#FFFFFF;" width="1.27" height="10.185"/>
	<path style="fill:#FFFFFF;" d="M73.665,64.917l-1.161,2.553h-1.365l4.863-10.617l4.863,10.617H79.5l-1.162-2.553H73.665z
		 M76.001,59.635l-1.81,4.12h3.62L76.001,59.635z"/>
	<polygon style="fill:#FFFFFF;" points="87.167,56.799 94.812,64.809 94.812,57.285 96.082,57.285 96.082,67.889 88.436,59.878 
		88.436,67.47 87.167,67.47 	"/>
</g>
<g>
	<polygon style="fill:#FFFFFF;" points="54.902,54.049 52.226,47.747 52.274,47.621 70.477,0.673 66.661,0.673 50.543,43.023 
		47.913,37.501 61.787,0.673 58.113,0.673 45.828,32.171 33.649,2.185 32,7.926 50.837,54.064 46.268,54.064 29.682,13.35 
		28.122,17.754 42.47,54.064 37.661,54.064 25.775,23.071 13.669,54.064 8.865,54.064 29.525,0.673 25.933,0.673 5.496,54.064 
		0.693,54.064 21.23,0.004 21.94,0.004 1.663,53.395 5.036,53.395 25.473,0.004 30.501,0.004 9.841,53.395 13.212,53.395 
		25.78,21.219 38.121,53.395 41.487,53.395 27.408,17.767 29.639,11.47 46.718,53.395 49.841,53.395 31.297,7.975 33.512,0.004 
		45.819,30.314 57.652,0.004 62.747,0.004 48.638,37.468 50.468,41.311 66.197,0.004 71.448,0.004 52.947,47.734 54.879,52.283 
		69.105,16.995 83.378,53.395 86.973,53.395 71.124,12.26 73.871,5.219 91.411,53.395 95.081,53.395 75.39,0.004 76.095,0 
		96.041,54.064 90.942,54.064 73.85,7.115 71.841,12.262 87.948,54.064 82.922,54.064 69.104,18.823 	"/>
</g>
<g>
	<path style="fill:#FFFFFF;" d="M6.182,75.764H5.599v-5.235h0.583V75.764z"/>
	<path style="fill:#FFFFFF;" d="M7.279,70.307l4.082,4.277v-4.055h0.583V76l-4.082-4.27v4.034H7.279V70.307z"/>
	<path style="fill:#FFFFFF;" d="M14.424,75.764h-0.583V71.07h-1.264v-0.542h3.124v0.542h-1.277V75.764z"/>
	<path style="fill:#FFFFFF;" d="M16.299,70.529h2.715v0.542h-2.132v1.555h2.069v0.541h-2.069v2.055h2.132v0.542h-2.715V70.529z"/>
	<path style="fill:#FFFFFF;" d="M20.59,75.764h-0.583v-5.235h0.757c0.993,0,1.916,0.264,1.916,1.444
		c0,0.805-0.507,1.375-1.312,1.444l1.666,2.347h-0.715l-1.583-2.298H20.59V75.764z M20.59,72.952h0.181
		c0.66,0,1.326-0.125,1.326-0.937c0-0.861-0.632-0.944-1.333-0.944H20.59V72.952z"/>
	<path style="fill:#FFFFFF;" d="M23.805,70.307l4.082,4.277v-4.055h0.583V76l-4.082-4.27v4.034h-0.583V70.307z"/>
	<path style="fill:#FFFFFF;" d="M30.345,74.278l-0.632,1.486h-0.639l2.416-5.485l2.354,5.485h-0.646l-0.618-1.486H30.345z
		 M31.477,71.64l-0.896,2.097h1.77L31.477,71.64z"/>
	<path style="fill:#FFFFFF;" d="M35.247,75.764h-0.583V71.07h-1.264v-0.542h3.124v0.542h-1.278V75.764z"/>
	<path style="fill:#FFFFFF;" d="M37.719,75.764h-0.583v-5.235h0.583V75.764z"/>
	<path style="fill:#FFFFFF;" d="M43.975,73.154c0,1.506-1.236,2.701-2.729,2.701s-2.729-1.194-2.729-2.701
		c0-1.5,1.236-2.715,2.729-2.715S43.975,71.654,43.975,73.154z M39.101,73.146c0,1.18,0.958,2.166,2.145,2.166
		s2.145-0.986,2.145-2.166c0-1.187-0.944-2.166-2.145-2.166C40.045,70.98,39.101,71.959,39.101,73.146z"/>
	<path style="fill:#FFFFFF;" d="M44.802,70.307l4.082,4.277v-4.055h0.583V76l-4.082-4.27v4.034h-0.583V70.307z"/>
	<path style="fill:#FFFFFF;" d="M51.342,74.278l-0.632,1.486h-0.639l2.416-5.485l2.354,5.485h-0.646l-0.618-1.486H51.342z
		 M52.474,71.64l-0.896,2.097h1.77L52.474,71.64z"/>
	<path style="fill:#FFFFFF;" d="M55.994,75.222h1.444v0.542h-2.027v-5.235h0.583V75.222z"/>
	<path style="fill:#FFFFFF;" d="M63.445,72.654v-2.125h0.583v5.235h-0.583v-2.569h-2.68v2.569h-0.583v-5.235h0.583v2.125H63.445z"/>
	<path style="fill:#FFFFFF;" d="M70.304,73.154c0,1.506-1.236,2.701-2.729,2.701s-2.729-1.194-2.729-2.701
		c0-1.5,1.236-2.715,2.729-2.715S70.304,71.654,70.304,73.154z M65.431,73.146c0,1.18,0.958,2.166,2.145,2.166
		s2.145-0.986,2.145-2.166c0-1.187-0.944-2.166-2.145-2.166C66.375,70.98,65.431,71.959,65.431,73.146z"/>
	<path style="fill:#FFFFFF;" d="M71.68,75.222h1.444v0.542h-2.027v-5.235h0.583V75.222z"/>
	<path style="fill:#FFFFFF;" d="M73.7,70.529h0.986c0.785,0,1.423,0.104,2.041,0.632c0.597,0.514,0.868,1.215,0.868,1.993
		c0,0.764-0.278,1.437-0.854,1.951c-0.625,0.555-1.25,0.66-2.069,0.66H73.7V70.529z M74.707,75.222c0.639,0,1.173-0.09,1.653-0.541
		c0.43-0.403,0.653-0.951,0.653-1.534c0-0.597-0.229-1.173-0.68-1.569c-0.479-0.423-1.007-0.507-1.625-0.507h-0.423v4.152H74.707z"
		/>
	<path style="fill:#FFFFFF;" d="M79.005,75.764h-0.583v-5.235h0.583V75.764z"/>
	<path style="fill:#FFFFFF;" d="M80.102,70.307l4.082,4.277v-4.055h0.583V76l-4.082-4.27v4.034h-0.583V70.307z"/>
	<path style="fill:#FFFFFF;" d="M90.725,73.132c0.014,0.708-0.063,1.292-0.542,1.847c-0.479,0.555-1.208,0.875-1.937,0.875
		c-1.472,0-2.694-1.222-2.694-2.694c0-1.5,1.222-2.722,2.729-2.722c0.916,0,1.659,0.41,2.215,1.132l-0.423,0.396
		c-0.437-0.618-1.028-0.986-1.798-0.986c-1.194,0-2.138,1.007-2.138,2.187c0,0.555,0.222,1.083,0.611,1.479
		c0.382,0.382,0.937,0.667,1.486,0.667c0.909,0,1.868-0.667,1.868-1.639h-1.555v-0.542H90.725z"/>
</g>
<g>
</g>
<g>
</g>
<g>
</g>
<g>
</g>
<g>
</g>
<g>
</g>
</svg>
