<?xml version="1.0" encoding="iso-8859-1"?>
<!-- Generator: Adobe Illustrator 18.1.1, SVG Export Plug-In . SVG Version: 6.00 Build 0)  -->
<svg version="1.1" id="Layer_1" xmlns="http://www.w3.org/2000/svg" xmlns:xlink="http://www.w3.org/1999/xlink" x="0px" y="0px"
	 viewBox="0 0 289.719 229.166" style="enable-background:new 0 0 289.719 229.166;" xml:space="preserve">
<g>
	<polygon style="fill:#424243;" points="7.616,183.161 7.534,183.161 3.951,203.445 0,203.445 6.273,171.431 16.82,195.624 
		27.37,171.431 33.642,203.445 29.691,203.445 26.107,183.161 26.026,183.161 16.82,204.096 	"/>
	<polygon style="fill:#424243;" points="52.647,172.734 69.142,172.734 69.142,176.238 56.475,176.238 56.475,184.831 
		68.776,184.831 68.776,188.335 56.475,188.335 56.475,199.942 69.142,199.942 69.142,203.444 52.647,203.444 	"/>
	<path style="fill:#424243;" d="M107.249,203.445h-4.643l-9.042-12.993h-1.589v12.993h-3.829v-30.711h4.643
		c2.729,0,5.661,0.041,8.106,1.426c2.566,1.507,4.032,4.399,4.032,7.331c0,4.399-2.932,8.064-7.372,8.594L107.249,203.445z
		 M91.976,187.275h1.222c3.909,0,8.145-0.733,8.145-5.62c0-4.807-4.561-5.499-8.35-5.499h-1.018V187.275z"/>
	<rect x="126.255" y="172.735" style="fill:#424243;" width="3.829" height="30.71"/>
	<path style="fill:#424243;" d="M149.088,172.734h6.353c9.409,0,17.229,4.97,17.229,15.192c0,10.468-7.657,15.517-17.351,15.517
		h-6.231V172.734z M152.916,199.941h1.344c7.82,0,14.581-2.932,14.581-11.852c0-8.96-6.761-11.851-14.581-11.851h-1.344V199.941z"/>
	<rect x="191.675" y="172.735" style="fill:#424243;" width="3.829" height="30.71"/>
	<path style="fill:#424243;" d="M222.124,195.747l-3.502,7.697h-4.115l14.662-32.013l14.663,32.013h-4.114l-3.503-7.697H222.124z
		 M229.17,179.821l-5.457,12.422h10.915L229.17,179.821z"/>
	<polygon style="fill:#424243;" points="262.837,171.268 285.89,195.421 285.89,172.735 289.719,172.735 289.719,204.707 
		266.666,180.554 266.666,203.444 262.837,203.444 	"/>
</g>
<g>
	<polygon style="fill:#828383;" points="165.547,162.975 157.479,143.975 157.623,143.595 212.512,2.028 201.006,2.028 
		152.403,129.729 144.475,113.079 186.31,2.028 175.231,2.028 138.187,97.005 101.463,6.587 96.49,23.899 153.291,163.022 
		139.515,163.022 89.502,40.253 84.799,53.534 128.063,163.022 113.561,163.022 77.719,69.568 41.217,163.022 26.732,163.022 
		89.029,2.028 78.198,2.028 16.572,163.022 2.091,163.022 64.016,0.011 66.156,0.011 5.015,161.005 15.184,161.005 76.81,0.011 
		91.972,0.011 29.675,161.005 39.84,161.005 77.737,63.981 114.948,161.005 125.097,161.005 82.645,53.573 89.37,34.584 
		140.871,161.005 150.289,161.005 94.372,24.047 101.051,0.011 138.159,91.407 173.84,0.011 189.203,0.011 146.662,112.98 
		152.179,124.566 199.606,0.011 215.439,0.011 159.652,143.934 165.478,157.651 208.376,51.246 251.414,161.005 262.255,161.005 
		214.463,36.968 222.748,15.737 275.635,161.005 286.703,161.005 227.328,0.011 229.453,0 289.597,163.022 274.222,163.022 
		222.682,21.453 216.626,36.973 265.193,163.022 250.039,163.022 208.371,56.758 	"/>
</g>
<g>
	<path style="fill:#424243;" d="M18.642,228.454h-1.759v-15.785h1.759V228.454z"/>
	<path style="fill:#424243;" d="M21.95,211.999l12.31,12.896v-12.227h1.759v16.497l-12.31-12.875v12.163H21.95V211.999z"/>
	<path style="fill:#424243;" d="M43.494,228.454h-1.759v-14.152h-3.81v-1.633h9.42v1.633h-3.852V228.454z"/>
	<path style="fill:#424243;" d="M49.147,212.669h8.186v1.633h-6.427v4.689h6.239v1.633h-6.239v6.197h6.427v1.633h-8.186V212.669z"/>
	<path style="fill:#424243;" d="M62.086,228.454h-1.759v-15.785h2.282c2.994,0,5.778,0.796,5.778,4.354
		c0,2.429-1.528,4.146-3.957,4.354l5.024,7.076h-2.156l-4.773-6.93h-0.439V228.454z M62.086,219.976h0.544
		c1.989,0,3.999-0.377,3.999-2.826c0-2.596-1.905-2.848-4.02-2.848h-0.523V219.976z"/>
	<path style="fill:#424243;" d="M71.78,211.999l12.31,12.896v-12.227h1.759v16.497l-12.31-12.875v12.163H71.78V211.999z"/>
	<path style="fill:#424243;" d="M91.502,223.974l-1.905,4.48h-1.926l7.286-16.539l7.097,16.539h-1.947l-1.863-4.48H91.502z
		 M94.914,216.019l-2.701,6.322h5.338L94.914,216.019z"/>
	<path style="fill:#424243;" d="M106.283,228.454h-1.758v-14.152h-3.81v-1.633h9.421v1.633h-3.853V228.454z"/>
	<path style="fill:#424243;" d="M113.737,228.454h-1.759v-15.785h1.759V228.454z"/>
	<path style="fill:#424243;" d="M132.599,220.583c0,4.542-3.727,8.144-8.228,8.144s-8.228-3.602-8.228-8.144
		c0-4.522,3.727-8.187,8.228-8.187S132.599,216.061,132.599,220.583z M117.903,220.562c0,3.559,2.889,6.532,6.469,6.532
		s6.469-2.974,6.469-6.532c0-3.58-2.847-6.531-6.469-6.531C120.75,214.03,117.903,216.981,117.903,220.562z"/>
	<path style="fill:#424243;" d="M135.093,211.999l12.31,12.896v-12.227h1.759v16.497l-12.31-12.875v12.163h-1.758V211.999z"/>
	<path style="fill:#424243;" d="M154.815,223.974l-1.905,4.48h-1.926l7.286-16.539l7.097,16.539h-1.947l-1.863-4.48H154.815z
		 M158.227,216.019l-2.701,6.322h5.338L158.227,216.019z"/>
	<path style="fill:#424243;" d="M168.843,226.821h4.354v1.633h-6.113v-15.785h1.759V226.821z"/>
	<path style="fill:#424243;" d="M191.307,219.075v-6.406h1.759v15.785h-1.759v-7.746h-8.081v7.746h-1.759v-15.785h1.759v6.406
		H191.307z"/>
	<path style="fill:#424243;" d="M211.992,220.583c0,4.542-3.727,8.144-8.228,8.144s-8.228-3.602-8.228-8.144
		c0-4.522,3.727-8.187,8.228-8.187S211.992,216.061,211.992,220.583z M197.296,220.562c0,3.559,2.889,6.532,6.469,6.532
		s6.469-2.974,6.469-6.532c0-3.58-2.847-6.531-6.469-6.531C200.143,214.03,197.296,216.981,197.296,220.562z"/>
	<path style="fill:#424243;" d="M216.139,226.821h4.354v1.633h-6.113v-15.785h1.758V226.821z"/>
	<path style="fill:#424243;" d="M222.232,212.669h2.973c2.366,0,4.292,0.314,6.155,1.905c1.8,1.549,2.617,3.663,2.617,6.009
		c0,2.303-0.837,4.333-2.575,5.882c-1.884,1.675-3.769,1.989-6.239,1.989h-2.931V212.669z M225.267,226.821
		c1.926,0,3.538-0.272,4.983-1.633c1.298-1.215,1.968-2.868,1.968-4.627c0-1.801-0.691-3.538-2.052-4.731
		c-1.444-1.276-3.036-1.528-4.899-1.528h-1.277v12.52H225.267z"/>
	<path style="fill:#424243;" d="M238.227,228.454h-1.759v-15.785h1.759V228.454z"/>
	<path style="fill:#424243;" d="M241.535,211.999l12.31,12.896v-12.227h1.759v16.497l-12.31-12.875v12.163h-1.758V211.999z"/>
	<path style="fill:#424243;" d="M273.568,220.52c0.042,2.136-0.188,3.895-1.633,5.569c-1.445,1.675-3.643,2.638-5.841,2.638
		c-4.438,0-8.123-3.685-8.123-8.123c0-4.522,3.685-8.207,8.228-8.207c2.763,0,5.003,1.235,6.678,3.413l-1.277,1.193
		c-1.319-1.863-3.099-2.973-5.422-2.973c-3.601,0-6.448,3.035-6.448,6.594c0,1.675,0.67,3.267,1.843,4.46
		c1.151,1.151,2.826,2.01,4.48,2.01c2.742,0,5.631-2.01,5.631-4.941h-4.689v-1.633H273.568z"/>
</g>
<g>
</g>
<g>
</g>
<g>
</g>
<g>
</g>
<g>
</g>
<g>
</g>
</svg>
