<?xml version="1.0" encoding="iso-8859-1"?>
<!-- Generator: Adobe Illustrator 18.1.1, SVG Export Plug-In . SVG Version: 6.00 Build 0)  -->
<svg version="1.1" id="Layer_1" xmlns="http://www.w3.org/2000/svg" xmlns:xlink="http://www.w3.org/1999/xlink" x="0px" y="0px"
	 viewBox="0 0 1100 500" style="enable-background:new 0 0 1100 500;" xml:space="preserve">
<g>
	<path style="fill:#463428;" d="M115.955,141.885c-4.785-6.493-10.936-10.593-19.31-10.593c-8.029,0-15.718,6.15-15.718,14.522
		c0,21.702,51.09,12.645,51.09,55.876c0,25.799-16.063,44.084-42.379,44.084c-17.768,0-30.754-10.253-39.639-25.117l16.232-15.892
		c3.42,9.91,12.472,18.796,23.238,18.796c10.253,0,16.574-8.714,16.574-18.624c0-13.328-12.303-17.088-22.382-21.017
		c-16.577-6.835-28.708-15.207-28.708-35.199c0-21.357,15.894-38.616,37.591-38.616c11.449,0,27.338,5.639,35.201,14.353
		L115.955,141.885z"/>
	<polygon style="fill:#463428;" points="295.892,113.522 326.819,113.522 277.95,172.984 329.554,242.356 297.259,242.356 
		256.079,184.433 255.74,184.433 255.74,242.356 230.62,242.356 230.62,113.522 255.74,113.522 255.74,167.859 256.079,167.859 	"/>
	<polygon style="fill:#463428;" points="410.05,113.522 439.268,113.522 461.821,158.288 486.427,113.522 515.818,113.522 
		475.149,183.237 475.149,242.356 450.034,242.356 450.034,183.237 	"/>
	<polygon style="fill:#463428;" points="632.878,220.484 668.419,220.484 668.419,242.355 607.758,242.355 607.758,113.521 
		632.878,113.521 	"/>
	<path style="fill:#463428;" d="M788.213,215.188l-10.593,27.167h-26.485l50.234-132.252h19.478l48.869,132.252h-26.825
		l-9.912-27.167H788.213z M809.912,147.866h-0.343l-14.179,46.817h30.585L809.912,147.866z"/>
	<path style="fill:#463428;" d="M1050,242.356h-30.414l-31.267-51.944h-0.342v51.944h-25.12V113.521h34.005
		c25.46,0,43.059,11.278,43.059,38.787c0,16.403-9.057,32.806-26.316,35.71L1050,242.356z M987.977,172.812h3.246
		c13.839,0,23.578-4.1,23.578-19.82c0-15.889-10.079-18.964-23.407-18.964h-3.418V172.812z"/>
</g>
<g>
	<path style="fill:#463428;" d="M276.512,312.768h5.35c8.258,0,16.051,2.151,16.051,12.038c0,3.198-1.746,6.922-4.711,8.316v0.118
		c5.176,0.929,8.782,5.989,8.782,11.107c0,8.781-7.503,12.269-15.238,12.269h-10.234V312.768z M281.978,332.193h1.396
		c5.176,0,9.421-1.049,9.421-7.329c0-6.165-4.187-7.209-9.305-7.209h-1.512V332.193z M281.978,351.731h4.187
		c5.06,0,10.352-1.512,10.352-7.735c0-6.165-6.28-7.443-11.164-7.443h-3.374V351.731z"/>
	<polygon style="fill:#463428;" points="321.684,312.768 327.964,312.768 338.723,331.494 349.48,312.768 355.761,312.768 
		341.456,337.543 341.456,356.616 335.99,356.616 335.99,337.543 	"/>
	<polygon style="fill:#463428;" points="420.056,327.656 419.941,327.656 414.823,356.617 409.181,356.617 418.137,310.908 
		433.198,345.451 448.261,310.908 457.216,356.617 451.577,356.617 446.459,327.656 446.341,327.656 433.198,357.546 	"/>
	<polygon style="fill:#463428;" points="483.606,312.768 507.157,312.768 507.157,317.768 489.071,317.768 489.071,330.039 
		506.634,330.039 506.634,335.042 489.071,335.042 489.071,351.616 507.157,351.616 507.157,356.616 483.606,356.616 	"/>
	<path style="fill:#463428;" d="M561.805,356.616h-6.63l-12.911-18.552h-2.267v18.552h-5.465v-43.848h6.628
		c3.898,0,8.084,0.058,11.572,2.036c3.666,2.151,5.757,6.28,5.757,10.467c0,6.28-4.185,11.514-10.525,12.269L561.805,356.616z
		 M539.997,333.53h1.744c5.583,0,11.632-1.047,11.632-8.026c0-6.862-6.514-7.851-11.922-7.851h-1.454V333.53z"/>
	<rect x="589.139" y="312.77" style="fill:#463428;" width="5.465" height="43.847"/>
	<path style="fill:#463428;" d="M620.897,312.767h9.071c13.434,0,24.599,7.096,24.599,21.692c0,14.946-10.933,22.158-24.772,22.158
		h-8.898V312.767z M626.362,351.615h1.92c11.167,0,20.819-4.187,20.819-16.924c0-12.792-9.653-16.921-20.819-16.921h-1.92V351.615z"
		/>
	<rect x="682.967" y="312.77" style="fill:#463428;" width="5.465" height="43.847"/>
	<path style="fill:#463428;" d="M726.674,345.626l-5.002,10.991h-5.873l20.935-45.71l20.935,45.71h-5.873l-5.002-10.991H726.674z
		 M736.734,322.887l-7.793,17.737h15.585L736.734,322.887z"/>
	<polygon style="fill:#463428;" points="785.107,310.674 818.022,345.161 818.022,312.767 823.49,312.767 823.49,358.419 
		790.573,323.934 790.573,356.617 785.107,356.617 	"/>
	<g>
		<rect x="50.001" y="332.347" style="fill:#463428;" width="184.365" height="6.689"/>
	</g>
	<g>
		<rect x="865.634" y="332.347" style="fill:#463428;" width="184.366" height="6.689"/>
	</g>
</g>
<g>
	<path style="fill:#463428;" d="M283.551,410.181h-5.148v-26.404h5.148V410.181z"/>
	<path style="fill:#463428;" d="M294.293,383.076h3.712l13.903,18.455h0.07v-17.754h5.148v26.929h-3.712l-13.901-18.455h-0.071
		v17.93h-5.148V383.076z"/>
	<path style="fill:#463428;" d="M336.438,410.181h-5.149v-21.921h-5.322v-4.482h15.793v4.482h-5.322V410.181z"/>
	<path style="fill:#463428;" d="M355.79,388.259v5.813h8.195v4.482h-8.195v7.144h8.51v4.482h-13.657v-26.404h13.657v4.482H355.79z"
		/>
	<path style="fill:#463428;" d="M392.582,410.181h-6.234l-6.407-10.647h-0.071v10.647h-5.148v-26.404h6.969
		c5.217,0,8.824,2.31,8.824,7.949c0,3.362-1.855,6.724-5.393,7.317L392.582,410.181z M379.869,395.928h0.665
		c2.837,0,4.833-0.84,4.833-4.063c0-3.257-2.065-3.887-4.797-3.887h-0.701V395.928z"/>
	<path style="fill:#463428;" d="M401.252,383.076h3.712l13.903,18.455h0.07v-17.754h5.148v26.929h-3.711l-13.903-18.455H406.4v17.93
		h-5.148V383.076z"/>
	<path style="fill:#463428;" d="M440.21,404.612l-2.172,5.569h-5.427l10.295-27.104h3.992l10.016,27.104h-5.498l-2.031-5.569H440.21
		z M444.657,390.816h-0.07l-2.906,9.595h6.268L444.657,390.816z"/>
	<path style="fill:#463428;" d="M471.257,410.181h-5.149v-21.921h-5.322v-4.482h15.793v4.482h-5.322V410.181z"/>
	<path style="fill:#463428;" d="M490.609,410.181h-5.148v-26.404h5.148V410.181z"/>
	<path style="fill:#463428;" d="M513.153,410.882c-8.054,0-13.063-6.165-13.063-13.938c0-7.844,5.183-13.867,13.063-13.867
		s13.062,6.023,13.062,13.867C526.215,404.717,521.207,410.882,513.153,410.882z M513.153,388.154c-4.868,0-7.739,4.307-7.739,8.579
		c0,4.063,2.031,9.07,7.739,9.07s7.739-5.007,7.739-9.07C520.892,392.461,518.02,388.154,513.153,388.154z"/>
	<path style="fill:#463428;" d="M535.721,383.076h3.712l13.901,18.455h0.071v-17.754h5.149v26.929h-3.713l-13.901-18.455h-0.071
		v17.93h-5.148V383.076z"/>
	<path style="fill:#463428;" d="M574.678,404.612l-2.17,5.569h-5.427l10.295-27.104h3.992l10.015,27.104h-5.498l-2.031-5.569
		H574.678z M579.126,390.816h-0.068l-2.908,9.595h6.267L579.126,390.816z"/>
	<path style="fill:#463428;" d="M605.093,405.698h7.285v4.482h-12.432v-26.404h5.146V405.698z"/>
	<path style="fill:#463428;" d="M652.803,394.177v-10.4h5.146v26.404h-5.146v-11.802h-9.526v11.802h-5.146v-26.404h5.146v10.4
		H652.803z"/>
	<path style="fill:#463428;" d="M680.522,410.882c-8.057,0-13.064-6.165-13.064-13.938c0-7.844,5.183-13.867,13.064-13.867
		c7.878,0,13.062,6.023,13.062,13.867C693.584,404.717,688.574,410.882,680.522,410.882z M680.522,388.154
		c-4.868,0-7.739,4.307-7.739,8.579c0,4.063,2.031,9.07,7.739,9.07s7.739-5.007,7.739-9.07
		C688.262,392.461,685.388,388.154,680.522,388.154z"/>
	<path style="fill:#463428;" d="M708.237,405.698h7.285v4.482h-12.432v-26.404h5.146V405.698z"/>
	<path style="fill:#463428;" d="M724.16,383.777h7.354c7.632,0,12.747,5.708,12.747,13.235c0,7.424-5.251,13.169-12.781,13.169
		h-7.319V383.777z M729.307,405.698h0.84c6.338,0,8.789-3.503,8.789-8.721c0-5.742-2.939-8.718-8.789-8.718h-0.84V405.698z"/>
	<path style="fill:#463428;" d="M758.916,410.181h-5.146v-26.404h5.146V410.181z"/>
	<path style="fill:#463428;" d="M769.658,383.076h3.713l13.904,18.455h0.068v-17.754h5.146v26.929h-3.711l-13.901-18.455h-0.071
		v17.93h-5.149V383.076z"/>
	<path style="fill:#463428;" d="M826.548,396.138v0.664c0,7.461-3.818,14.08-12.012,14.08c-7.705,0-12.573-6.514-12.573-13.799
		c0-7.529,5.01-14.006,12.886-14.006c4.482,0,8.406,2.275,10.437,6.304l-4.553,2.451c-1.05-2.383-3.291-4.204-6.021-4.204
		c-4.976,0-7.427,5.078-7.427,9.456s2.488,9.246,7.461,9.246c3.223,0,5.918-2.803,6.023-5.989h-5.603v-4.202H826.548z"/>
</g>
<g>
</g>
<g>
</g>
<g>
</g>
<g>
</g>
<g>
</g>
</svg>
